<?xml version="1.0" encoding="utf-8" standalone="no"?>
<!DOCTYPE svg PUBLIC "-//W3C//DTD SVG 1.1//EN"
  "http://www.w3.org/Graphics/SVG/1.1/DTD/svg11.dtd">
<svg xmlns:xlink="http://www.w3.org/1999/xlink" width="372.569219pt" height="282.815906pt" viewBox="0 0 372.569219 282.815906" xmlns="http://www.w3.org/2000/svg" version="1.1">
 <metadata>
  <rdf:RDF xmlns:dc="http://purl.org/dc/elements/1.1/" xmlns:cc="http://creativecommons.org/ns#" xmlns:rdf="http://www.w3.org/1999/02/22-rdf-syntax-ns#">
   <cc:Work>
    <dc:type rdf:resource="http://purl.org/dc/dcmitype/StillImage"/>
    <dc:date>2026-01-12T14:24:58.001594</dc:date>
    <dc:format>image/svg+xml</dc:format>
    <dc:creator>
     <cc:Agent>
      <dc:title>Matplotlib v3.10.1, https://matplotlib.org/</dc:title>
     </cc:Agent>
    </dc:creator>
   </cc:Work>
  </rdf:RDF>
 </metadata>
 <defs>
  <style type="text/css">*{stroke-linejoin: round; stroke-linecap: butt}</style>
 </defs>
 <g id="figure_1">
  <g id="patch_1">
   <path d="M 0 282.815906 
L 372.569219 282.815906 
L 372.569219 0 
L 0 0 
z
" style="fill: #ffffff"/>
  </g>
  <g id="axes_1">
   <g id="patch_2">
    <path d="M 24.6975 261.469969 
L 359.4975 261.469969 
L 359.4975 23.077969 
L 24.6975 23.077969 
z
" style="fill: #ffffff"/>
   </g>
   <g id="matplotlib.axis_1">
    <g id="xtick_1">
     <g id="line2d_1">
      <path d="M 39.915073 261.469969 
L 39.915073 23.077969 
" clip-path="url(#p8f52760add)" style="fill: none; stroke: #b0b0b0; stroke-width: 0.8; stroke-linecap: square"/>
     </g>
     <g id="line2d_2">
      <defs>
       <path id="mc0dfecffe8" d="M 0 0 
L 0 -3.5 
" style="stroke: #000000; stroke-width: 0.8"/>
      </defs>
      <g>
       <use xlink:href="#mc0dfecffe8" x="39.915073" y="261.469969" style="stroke: #000000; stroke-width: 0.8"/>
      </g>
     </g>
     <g id="text_1">
      <!-- 0 -->
      <g transform="translate(36.415698 273.32825) scale(0.11 -0.11)">
       <defs>
        <path id="DejaVuSerif-30" d="M 2034 219 
Q 2513 219 2750 744 
Q 2988 1269 2988 2328 
Q 2988 3391 2750 3916 
Q 2513 4441 2034 4441 
Q 1556 4441 1318 3916 
Q 1081 3391 1081 2328 
Q 1081 1269 1318 744 
Q 1556 219 2034 219 
z
M 2034 -91 
Q 1275 -91 848 546 
Q 422 1184 422 2328 
Q 422 3475 848 4112 
Q 1275 4750 2034 4750 
Q 2797 4750 3222 4112 
Q 3647 3475 3647 2328 
Q 3647 1184 3222 546 
Q 2797 -91 2034 -91 
z
" transform="scale(0.015625)"/>
       </defs>
       <use xlink:href="#DejaVuSerif-30"/>
      </g>
     </g>
    </g>
    <g id="xtick_2">
     <g id="line2d_3">
      <path d="M 100.787922 261.469969 
L 100.787922 23.077969 
" clip-path="url(#p8f52760add)" style="fill: none; stroke: #b0b0b0; stroke-width: 0.8; stroke-linecap: square"/>
     </g>
     <g id="line2d_4">
      <g>
       <use xlink:href="#mc0dfecffe8" x="100.787922" y="261.469969" style="stroke: #000000; stroke-width: 0.8"/>
      </g>
     </g>
     <g id="text_2">
      <!-- 1 -->
      <g transform="translate(97.288547 273.32825) scale(0.11 -0.11)">
       <defs>
        <path id="DejaVuSerif-31" d="M 909 0 
L 909 331 
L 1722 331 
L 1722 4213 
L 781 3603 
L 781 4013 
L 1919 4750 
L 2350 4750 
L 2350 331 
L 3163 331 
L 3163 0 
L 909 0 
z
" transform="scale(0.015625)"/>
       </defs>
       <use xlink:href="#DejaVuSerif-31"/>
      </g>
     </g>
    </g>
    <g id="xtick_3">
     <g id="line2d_5">
      <path d="M 161.660771 261.469969 
L 161.660771 23.077969 
" clip-path="url(#p8f52760add)" style="fill: none; stroke: #b0b0b0; stroke-width: 0.8; stroke-linecap: square"/>
     </g>
     <g id="line2d_6">
      <g>
       <use xlink:href="#mc0dfecffe8" x="161.660771" y="261.469969" style="stroke: #000000; stroke-width: 0.8"/>
      </g>
     </g>
     <g id="text_3">
      <!-- 2 -->
      <g transform="translate(158.161396 273.32825) scale(0.11 -0.11)">
       <defs>
        <path id="DejaVuSerif-32" d="M 819 3553 
L 469 3553 
L 469 4384 
Q 803 4563 1142 4656 
Q 1481 4750 1806 4750 
Q 2534 4750 2956 4397 
Q 3378 4044 3378 3438 
Q 3378 2753 2422 1800 
Q 2347 1728 2309 1691 
L 1131 513 
L 3078 513 
L 3078 1088 
L 3444 1088 
L 3444 0 
L 434 0 
L 434 341 
L 1850 1753 
Q 2319 2222 2519 2614 
Q 2719 3006 2719 3438 
Q 2719 3909 2473 4175 
Q 2228 4441 1797 4441 
Q 1350 4441 1106 4219 
Q 863 3997 819 3553 
z
" transform="scale(0.015625)"/>
       </defs>
       <use xlink:href="#DejaVuSerif-32"/>
      </g>
     </g>
    </g>
    <g id="xtick_4">
     <g id="line2d_7">
      <path d="M 222.53362 261.469969 
L 222.53362 23.077969 
" clip-path="url(#p8f52760add)" style="fill: none; stroke: #b0b0b0; stroke-width: 0.8; stroke-linecap: square"/>
     </g>
     <g id="line2d_8">
      <g>
       <use xlink:href="#mc0dfecffe8" x="222.53362" y="261.469969" style="stroke: #000000; stroke-width: 0.8"/>
      </g>
     </g>
     <g id="text_4">
      <!-- 3 -->
      <g transform="translate(219.034245 273.32825) scale(0.11 -0.11)">
       <defs>
        <path id="DejaVuSerif-33" d="M 622 4469 
Q 988 4606 1323 4678 
Q 1659 4750 1953 4750 
Q 2638 4750 3022 4454 
Q 3406 4159 3406 3634 
Q 3406 3213 3140 2930 
Q 2875 2647 2388 2547 
Q 2963 2466 3280 2130 
Q 3597 1794 3597 1259 
Q 3597 606 3158 257 
Q 2719 -91 1894 -91 
Q 1528 -91 1179 -12 
Q 831 66 488 225 
L 488 1131 
L 838 1131 
Q 869 681 1141 450 
Q 1413 219 1906 219 
Q 2384 219 2661 495 
Q 2938 772 2938 1253 
Q 2938 1803 2653 2086 
Q 2369 2369 1819 2369 
L 1522 2369 
L 1522 2688 
L 1678 2688 
Q 2225 2688 2498 2914 
Q 2772 3141 2772 3597 
Q 2772 4006 2547 4223 
Q 2322 4441 1900 4441 
Q 1478 4441 1245 4241 
Q 1013 4041 972 3647 
L 622 3647 
L 622 4469 
z
" transform="scale(0.015625)"/>
       </defs>
       <use xlink:href="#DejaVuSerif-33"/>
      </g>
     </g>
    </g>
    <g id="xtick_5">
     <g id="line2d_9">
      <path d="M 283.406469 261.469969 
L 283.406469 23.077969 
" clip-path="url(#p8f52760add)" style="fill: none; stroke: #b0b0b0; stroke-width: 0.8; stroke-linecap: square"/>
     </g>
     <g id="line2d_10">
      <g>
       <use xlink:href="#mc0dfecffe8" x="283.406469" y="261.469969" style="stroke: #000000; stroke-width: 0.8"/>
      </g>
     </g>
     <g id="text_5">
      <!-- 4 -->
      <g transform="translate(279.907094 273.32825) scale(0.11 -0.11)">
       <defs>
        <path id="DejaVuSerif-34" d="M 2234 1581 
L 2234 4063 
L 641 1581 
L 2234 1581 
z
M 3609 0 
L 1484 0 
L 1484 331 
L 2234 331 
L 2234 1247 
L 197 1247 
L 197 1588 
L 2241 4750 
L 2859 4750 
L 2859 1581 
L 3750 1581 
L 3750 1247 
L 2859 1247 
L 2859 331 
L 3609 331 
L 3609 0 
z
" transform="scale(0.015625)"/>
       </defs>
       <use xlink:href="#DejaVuSerif-34"/>
      </g>
     </g>
    </g>
    <g id="xtick_6">
     <g id="line2d_11">
      <path d="M 344.279318 261.469969 
L 344.279318 23.077969 
" clip-path="url(#p8f52760add)" style="fill: none; stroke: #b0b0b0; stroke-width: 0.8; stroke-linecap: square"/>
     </g>
     <g id="line2d_12">
      <g>
       <use xlink:href="#mc0dfecffe8" x="344.279318" y="261.469969" style="stroke: #000000; stroke-width: 0.8"/>
      </g>
     </g>
     <g id="text_6">
      <!-- 5 -->
      <g transform="translate(340.779943 273.32825) scale(0.11 -0.11)">
       <defs>
        <path id="DejaVuSerif-35" d="M 3219 4666 
L 3219 4153 
L 1081 4153 
L 1081 2816 
Q 1244 2928 1461 2984 
Q 1678 3041 1947 3041 
Q 2703 3041 3140 2622 
Q 3578 2203 3578 1478 
Q 3578 738 3136 323 
Q 2694 -91 1894 -91 
Q 1572 -91 1234 -12 
Q 897 66 544 225 
L 544 1131 
L 897 1131 
Q 925 688 1179 453 
Q 1434 219 1894 219 
Q 2388 219 2653 544 
Q 2919 869 2919 1478 
Q 2919 2084 2655 2407 
Q 2391 2731 1894 2731 
Q 1613 2731 1398 2631 
Q 1184 2531 1019 2322 
L 750 2322 
L 750 4666 
L 3219 4666 
z
" transform="scale(0.015625)"/>
       </defs>
       <use xlink:href="#DejaVuSerif-35"/>
      </g>
     </g>
    </g>
   </g>
   <g id="matplotlib.axis_2">
    <g id="ytick_1">
     <g id="line2d_13">
      <path d="M 24.6975 261.469969 
L 359.4975 261.469969 
" clip-path="url(#p8f52760add)" style="fill: none; stroke: #b0b0b0; stroke-width: 0.8; stroke-linecap: square"/>
     </g>
     <g id="line2d_14">
      <defs>
       <path id="m91ec15305a" d="M 0 0 
L 3.5 0 
" style="stroke: #000000; stroke-width: 0.8"/>
      </defs>
      <g>
       <use xlink:href="#m91ec15305a" x="24.6975" y="261.469969" style="stroke: #000000; stroke-width: 0.8"/>
      </g>
     </g>
     <g id="text_7">
      <!-- 0 -->
      <g transform="translate(14.19875 265.649109) scale(0.11 -0.11)">
       <use xlink:href="#DejaVuSerif-30"/>
      </g>
     </g>
    </g>
    <g id="ytick_2">
     <g id="line2d_15">
      <path d="M 24.6975 213.791569 
L 359.4975 213.791569 
" clip-path="url(#p8f52760add)" style="fill: none; stroke: #b0b0b0; stroke-width: 0.8; stroke-linecap: square"/>
     </g>
     <g id="line2d_16">
      <g>
       <use xlink:href="#m91ec15305a" x="24.6975" y="213.791569" style="stroke: #000000; stroke-width: 0.8"/>
      </g>
     </g>
     <g id="text_8">
      <!-- 2 -->
      <g transform="translate(14.19875 217.970709) scale(0.11 -0.11)">
       <use xlink:href="#DejaVuSerif-32"/>
      </g>
     </g>
    </g>
    <g id="ytick_3">
     <g id="line2d_17">
      <path d="M 24.6975 166.113169 
L 359.4975 166.113169 
" clip-path="url(#p8f52760add)" style="fill: none; stroke: #b0b0b0; stroke-width: 0.8; stroke-linecap: square"/>
     </g>
     <g id="line2d_18">
      <g>
       <use xlink:href="#m91ec15305a" x="24.6975" y="166.113169" style="stroke: #000000; stroke-width: 0.8"/>
      </g>
     </g>
     <g id="text_9">
      <!-- 4 -->
      <g transform="translate(14.19875 170.292309) scale(0.11 -0.11)">
       <use xlink:href="#DejaVuSerif-34"/>
      </g>
     </g>
    </g>
    <g id="ytick_4">
     <g id="line2d_19">
      <path d="M 24.6975 118.434769 
L 359.4975 118.434769 
" clip-path="url(#p8f52760add)" style="fill: none; stroke: #b0b0b0; stroke-width: 0.8; stroke-linecap: square"/>
     </g>
     <g id="line2d_20">
      <g>
       <use xlink:href="#m91ec15305a" x="24.6975" y="118.434769" style="stroke: #000000; stroke-width: 0.8"/>
      </g>
     </g>
     <g id="text_10">
      <!-- 6 -->
      <g transform="translate(14.19875 122.613909) scale(0.11 -0.11)">
       <defs>
        <path id="DejaVuSerif-36" d="M 2094 219 
Q 2534 219 2771 542 
Q 3009 866 3009 1472 
Q 3009 2078 2771 2401 
Q 2534 2725 2094 2725 
Q 1647 2725 1412 2412 
Q 1178 2100 1178 1509 
Q 1178 888 1415 553 
Q 1653 219 2094 219 
z
M 1075 2569 
Q 1288 2803 1556 2918 
Q 1825 3034 2163 3034 
Q 2859 3034 3264 2615 
Q 3669 2197 3669 1472 
Q 3669 763 3233 336 
Q 2797 -91 2069 -91 
Q 1278 -91 853 498 
Q 428 1088 428 2181 
Q 428 3406 931 4078 
Q 1434 4750 2350 4750 
Q 2597 4750 2869 4703 
Q 3141 4656 3425 4563 
L 3425 3794 
L 3072 3794 
Q 3034 4109 2831 4275 
Q 2628 4441 2284 4441 
Q 1678 4441 1381 3981 
Q 1084 3522 1075 2569 
z
" transform="scale(0.015625)"/>
       </defs>
       <use xlink:href="#DejaVuSerif-36"/>
      </g>
     </g>
    </g>
    <g id="ytick_5">
     <g id="line2d_21">
      <path d="M 24.6975 70.756369 
L 359.4975 70.756369 
" clip-path="url(#p8f52760add)" style="fill: none; stroke: #b0b0b0; stroke-width: 0.8; stroke-linecap: square"/>
     </g>
     <g id="line2d_22">
      <g>
       <use xlink:href="#m91ec15305a" x="24.6975" y="70.756369" style="stroke: #000000; stroke-width: 0.8"/>
      </g>
     </g>
     <g id="text_11">
      <!-- 8 -->
      <g transform="translate(14.19875 74.935509) scale(0.11 -0.11)">
       <defs>
        <path id="DejaVuSerif-38" d="M 2981 1275 
Q 2981 1775 2732 2051 
Q 2484 2328 2034 2328 
Q 1584 2328 1336 2051 
Q 1088 1775 1088 1275 
Q 1088 772 1336 495 
Q 1584 219 2034 219 
Q 2484 219 2732 495 
Q 2981 772 2981 1275 
z
M 2853 3541 
Q 2853 3966 2637 4203 
Q 2422 4441 2034 4441 
Q 1650 4441 1433 4203 
Q 1216 3966 1216 3541 
Q 1216 3113 1433 2875 
Q 1650 2638 2034 2638 
Q 2422 2638 2637 2875 
Q 2853 3113 2853 3541 
z
M 2516 2484 
Q 3047 2413 3344 2092 
Q 3641 1772 3641 1275 
Q 3641 619 3225 264 
Q 2809 -91 2034 -91 
Q 1263 -91 845 264 
Q 428 619 428 1275 
Q 428 1772 725 2092 
Q 1022 2413 1556 2484 
Q 1084 2569 832 2842 
Q 581 3116 581 3541 
Q 581 4103 968 4426 
Q 1356 4750 2034 4750 
Q 2713 4750 3100 4426 
Q 3488 4103 3488 3541 
Q 3488 3116 3236 2842 
Q 2984 2569 2516 2484 
z
" transform="scale(0.015625)"/>
       </defs>
       <use xlink:href="#DejaVuSerif-38"/>
      </g>
     </g>
    </g>
    <g id="ytick_6">
     <g id="line2d_23">
      <path d="M 24.6975 23.077969 
L 359.4975 23.077969 
" clip-path="url(#p8f52760add)" style="fill: none; stroke: #b0b0b0; stroke-width: 0.8; stroke-linecap: square"/>
     </g>
     <g id="line2d_24">
      <g>
       <use xlink:href="#m91ec15305a" x="24.6975" y="23.077969" style="stroke: #000000; stroke-width: 0.8"/>
      </g>
     </g>
     <g id="text_12">
      <!-- 10 -->
      <g transform="translate(7.2 27.257109) scale(0.11 -0.11)">
       <use xlink:href="#DejaVuSerif-31"/>
       <use xlink:href="#DejaVuSerif-30" transform="translate(63.623047 0)"/>
      </g>
     </g>
    </g>
   </g>
   <g id="line2d_25">
    <path d="M 39.916733 -1 
L 40.034385 110.073374 
L 40.277878 136.584416 
L 40.640075 153.085115 
L 41.11793 165.147416 
L 41.711445 174.696243 
L 42.42062 182.609038 
L 43.24241 189.343233 
L 44.176815 195.204904 
L 45.22688 200.404494 
L 46.392605 205.069085 
L 47.673988 209.290956 
L 49.074075 213.146836 
L 50.595909 216.69277 
L 52.245576 219.976577 
L 54.026121 223.028545 
L 55.946675 225.881271 
L 58.016368 228.558498 
L 60.247376 231.081031 
L 62.651873 233.463729 
L 65.245077 235.719731 
L 68.048294 237.862345 
L 71.079786 239.897881 
L 74.363903 241.833366 
L 77.93108 243.675299 
L 81.811755 245.426309 
L 86.042452 247.088635 
L 90.668826 248.664564 
L 95.739575 250.153849 
L 101.315572 251.556551 
L 107.47291 252.872675 
L 114.299855 254.10074 
L 121.905978 255.239071 
L 130.437376 256.286725 
L 140.076669 257.241727 
L 151.070393 258.10241 
L 163.762484 258.867382 
L 178.642971 259.535096 
L 196.448422 260.104142 
L 218.371954 260.5736 
L 246.510653 260.942851 
L 285.067824 261.211928 
L 344.279318 261.381976 
L 344.279318 261.381976 
" clip-path="url(#p8f52760add)" style="fill: none; stroke: #1f77b4; stroke-width: 1.5; stroke-linecap: square"/>
   </g>
   <g id="line2d_26">
    <path d="M 40.684194 -1 
L 41.087494 50.287842 
L 41.571437 85.204045 
L 42.137559 110.709408 
L 42.782816 130.14916 
L 43.510252 145.577952 
L 44.316824 158.11137 
L 45.205575 168.55832 
L 46.176504 177.416676 
L 47.232657 185.056024 
L 48.374032 191.718247 
L 49.60063 197.584808 
L 50.915494 202.805276 
L 52.321668 207.491213 
L 53.822195 211.727758 
L 55.42012 215.581153 
L 57.12153 219.109667 
L 58.932512 222.358116 
L 60.862197 225.365999 
L 62.919715 228.163381 
L 65.117243 230.776868 
L 67.466954 233.226359 
L 69.98711 235.532089 
L 72.695973 237.708176 
L 75.61485 239.766343 
L 78.768089 241.715923 
L 82.183083 243.563976 
L 85.893313 245.316802 
L 89.938346 246.979291 
L 94.360794 248.55358 
L 99.212398 250.041399 
L 104.55099 251.442656 
L 110.45266 252.758206 
L 117.002631 253.986659 
L 124.313519 255.127484 
L 132.522288 256.178951 
L 141.805472 257.139205 
L 152.403519 258.006862 
L 164.645147 258.780311 
L 178.992993 259.457684 
L 196.144055 260.037536 
L 217.212317 260.518721 
L 244.124418 260.900325 
L 280.666682 261.182131 
L 335.89706 261.365193 
L 344.279318 261.379937 
L 344.279318 261.379937 
" clip-path="url(#p8f52760add)" style="fill: none; stroke: #ff7f0e; stroke-width: 1.5; stroke-linecap: square"/>
   </g>
   <g id="line2d_27">
    <path d="M 45.376493 -1 
L 46.216072 34.727951 
L 47.113954 63.774843 
L 48.069665 87.719214 
L 49.083206 107.707725 
L 50.157621 124.62253 
L 51.289865 139.0307 
L 52.482982 151.441385 
L 53.733929 162.18552 
L 55.045749 171.573997 
L 56.418443 179.826729 
L 57.855054 187.134881 
L 59.355582 193.635758 
L 60.92307 199.453191 
L 62.557519 204.677048 
L 64.261973 209.390938 
L 66.042518 213.669628 
L 67.902198 217.566347 
L 69.847101 221.130791 
L 71.886358 224.407694 
L 74.026056 227.428218 
L 76.278369 230.225353 
L 78.658517 232.827693 
L 81.178673 235.253954 
L 83.857099 237.523716 
L 86.715103 239.653365 
L 89.777031 241.6562 
L 93.067235 243.541005 
L 96.619194 245.317614 
L 100.472476 246.993897 
L 104.666649 248.573345 
L 109.253455 250.060206 
L 114.293767 251.457205 
L 119.860634 252.765943 
L 126.042321 253.986979 
L 132.945358 255.119775 
L 140.709752 256.164145 
L 149.508992 257.118588 
L 159.580486 257.982132 
L 171.240773 258.752981 
L 184.946405 259.42974 
L 201.370031 260.010713 
L 221.583022 260.494578 
L 247.429841 260.880258 
L 282.492882 261.167217 
L 335.193973 261.356099 
L 344.279318 261.373548 
L 344.279318 261.373548 
" clip-path="url(#p8f52760add)" style="fill: none; stroke: #2ca02c; stroke-width: 1.5; stroke-linecap: square"/>
   </g>
   <g id="line2d_28">
    <path d="M 65.332494 -1 
L 66.751692 27.082556 
L 68.209608 51.63156 
L 69.707092 73.176039 
L 71.241101 92.107752 
L 72.814676 108.82888 
L 74.424776 123.612555 
L 76.074443 136.744732 
L 77.760635 148.419212 
L 79.486394 158.842703 
L 81.251721 168.169977 
L 83.059659 176.547218 
L 84.910208 184.084279 
L 86.803369 190.876753 
L 88.742185 197.017066 
L 90.729699 202.582982 
L 92.765912 207.63327 
L 94.856911 212.232797 
L 97.008784 216.435053 
L 99.224573 220.279507 
L 101.513411 223.809456 
L 103.881383 227.056118 
L 106.340666 230.053042 
L 108.903434 232.826869 
L 111.58186 235.398869 
L 114.391165 237.788573 
L 117.352653 240.015464 
L 120.487629 242.093671 
L 123.820445 244.034984 
L 127.381535 245.850351 
L 131.207424 247.54908 
L 135.33768 249.137322 
L 139.824045 250.621505 
L 144.724348 252.005297 
L 150.108595 253.291395 
L 156.068094 254.482669 
L 162.715463 255.580633 
L 170.193752 256.585946 
L 178.688626 257.498591 
L 188.452709 258.318454 
L 199.832979 259.044814 
L 213.340772 259.677217 
L 229.743093 260.214534 
L 250.303062 260.65601 
L 277.276037 261.000849 
L 315.321872 261.248867 
L 344.279318 261.343408 
L 344.279318 261.343408 
" clip-path="url(#p8f52760add)" style="fill: none; stroke: #d62728; stroke-width: 1.5; stroke-linecap: square"/>
   </g>
   <g id="patch_3">
    <path d="M 24.6975 261.469969 
L 24.6975 23.077969 
" style="fill: none; stroke: #000000; stroke-width: 1.2; stroke-linejoin: miter; stroke-linecap: square"/>
   </g>
   <g id="patch_4">
    <path d="M 359.4975 261.469969 
L 359.4975 23.077969 
" style="fill: none; stroke: #000000; stroke-width: 1.2; stroke-linejoin: miter; stroke-linecap: square"/>
   </g>
   <g id="patch_5">
    <path d="M 24.6975 261.469969 
L 359.4975 261.469969 
" style="fill: none; stroke: #000000; stroke-width: 1.2; stroke-linejoin: miter; stroke-linecap: square"/>
   </g>
   <g id="patch_6">
    <path d="M 24.6975 23.077969 
L 359.4975 23.077969 
" style="fill: none; stroke: #000000; stroke-width: 1.2; stroke-linejoin: miter; stroke-linecap: square"/>
   </g>
   <g id="text_13">
    <!-- Modified bessel function of the second kind K_nu (x) -->
    <g transform="translate(18.825781 17.077969) scale(0.13 -0.13)">
     <defs>
      <path id="DejaVuSerif-4d" d="M 353 0 
L 353 331 
L 947 331 
L 947 4331 
L 319 4331 
L 319 4666 
L 1678 4666 
L 3316 1344 
L 4953 4666 
L 6228 4666 
L 6228 4331 
L 5606 4331 
L 5606 331 
L 6203 331 
L 6203 0 
L 4378 0 
L 4378 331 
L 4972 331 
L 4972 3938 
L 3372 684 
L 2931 684 
L 1331 3938 
L 1331 331 
L 1925 331 
L 1925 0 
L 353 0 
z
" transform="scale(0.015625)"/>
      <path id="DejaVuSerif-6f" d="M 1925 219 
Q 2388 219 2623 584 
Q 2859 950 2859 1663 
Q 2859 2375 2623 2739 
Q 2388 3103 1925 3103 
Q 1463 3103 1227 2739 
Q 991 2375 991 1663 
Q 991 950 1228 584 
Q 1466 219 1925 219 
z
M 1925 -91 
Q 1200 -91 759 389 
Q 319 869 319 1663 
Q 319 2456 758 2934 
Q 1197 3413 1925 3413 
Q 2653 3413 3092 2934 
Q 3531 2456 3531 1663 
Q 3531 869 3092 389 
Q 2653 -91 1925 -91 
z
" transform="scale(0.015625)"/>
      <path id="DejaVuSerif-64" d="M 3359 331 
L 3909 331 
L 3909 0 
L 2784 0 
L 2784 519 
Q 2616 206 2355 57 
Q 2094 -91 1709 -91 
Q 1097 -91 708 395 
Q 319 881 319 1663 
Q 319 2444 706 2928 
Q 1094 3413 1709 3413 
Q 2094 3413 2355 3264 
Q 2616 3116 2784 2803 
L 2784 4531 
L 2241 4531 
L 2241 4863 
L 3359 4863 
L 3359 331 
z
M 2784 1497 
L 2784 1825 
Q 2784 2422 2554 2737 
Q 2325 3053 1888 3053 
Q 1444 3053 1217 2703 
Q 991 2353 991 1663 
Q 991 975 1217 622 
Q 1444 269 1888 269 
Q 2325 269 2554 583 
Q 2784 897 2784 1497 
z
" transform="scale(0.015625)"/>
      <path id="DejaVuSerif-69" d="M 622 4353 
Q 622 4497 726 4603 
Q 831 4709 978 4709 
Q 1122 4709 1226 4603 
Q 1331 4497 1331 4353 
Q 1331 4206 1228 4103 
Q 1125 4000 978 4000 
Q 831 4000 726 4103 
Q 622 4206 622 4353 
z
M 1356 331 
L 1900 331 
L 1900 0 
L 231 0 
L 231 331 
L 781 331 
L 781 2988 
L 231 2988 
L 231 3322 
L 1356 3322 
L 1356 331 
z
" transform="scale(0.015625)"/>
      <path id="DejaVuSerif-66" d="M 2753 4078 
L 2450 4078 
Q 2447 4313 2317 4434 
Q 2188 4556 1941 4556 
Q 1619 4556 1487 4379 
Q 1356 4203 1356 3750 
L 1356 3322 
L 2284 3322 
L 2284 2988 
L 1356 2988 
L 1356 331 
L 2094 331 
L 2094 0 
L 231 0 
L 231 331 
L 781 331 
L 781 2988 
L 231 2988 
L 231 3322 
L 781 3322 
L 781 3738 
Q 781 4294 1070 4578 
Q 1359 4863 1919 4863 
Q 2128 4863 2337 4825 
Q 2547 4788 2753 4709 
L 2753 4078 
z
" transform="scale(0.015625)"/>
      <path id="DejaVuSerif-65" d="M 3469 1600 
L 991 1600 
L 991 1575 
Q 991 903 1244 561 
Q 1497 219 1991 219 
Q 2369 219 2611 417 
Q 2853 616 2950 1006 
L 3413 1006 
Q 3275 459 2904 184 
Q 2534 -91 1931 -91 
Q 1203 -91 761 389 
Q 319 869 319 1663 
Q 319 2450 753 2931 
Q 1188 3413 1894 3413 
Q 2647 3413 3050 2948 
Q 3453 2484 3469 1600 
z
M 2791 1931 
Q 2772 2513 2545 2808 
Q 2319 3103 1894 3103 
Q 1497 3103 1269 2806 
Q 1041 2509 991 1931 
L 2791 1931 
z
" transform="scale(0.015625)"/>
      <path id="DejaVuSerif-20" transform="scale(0.015625)"/>
      <path id="DejaVuSerif-62" d="M 738 331 
L 738 4531 
L 184 4531 
L 184 4863 
L 1313 4863 
L 1313 2803 
Q 1481 3116 1742 3264 
Q 2003 3413 2388 3413 
Q 3000 3413 3387 2928 
Q 3775 2444 3775 1663 
Q 3775 881 3387 395 
Q 3000 -91 2388 -91 
Q 2003 -91 1742 57 
Q 1481 206 1313 519 
L 1313 0 
L 184 0 
L 184 331 
L 738 331 
z
M 1313 1497 
Q 1313 897 1542 583 
Q 1772 269 2209 269 
Q 2650 269 2876 622 
Q 3103 975 3103 1663 
Q 3103 2353 2876 2703 
Q 2650 3053 2209 3053 
Q 1772 3053 1542 2737 
Q 1313 2422 1313 1825 
L 1313 1497 
z
" transform="scale(0.015625)"/>
      <path id="DejaVuSerif-73" d="M 359 184 
L 359 959 
L 691 959 
Q 703 588 923 403 
Q 1144 219 1575 219 
Q 1963 219 2166 364 
Q 2369 509 2369 788 
Q 2369 1006 2220 1140 
Q 2072 1275 1594 1428 
L 1178 1569 
Q 750 1706 558 1912 
Q 366 2119 366 2438 
Q 366 2894 700 3153 
Q 1034 3413 1625 3413 
Q 1888 3413 2178 3344 
Q 2469 3275 2778 3144 
L 2778 2419 
L 2447 2419 
Q 2434 2741 2221 2922 
Q 2009 3103 1644 3103 
Q 1281 3103 1095 2975 
Q 909 2847 909 2591 
Q 909 2381 1050 2254 
Q 1191 2128 1613 1997 
L 2069 1856 
Q 2541 1709 2748 1489 
Q 2956 1269 2956 922 
Q 2956 450 2595 179 
Q 2234 -91 1600 -91 
Q 1278 -91 972 -22 
Q 666 47 359 184 
z
" transform="scale(0.015625)"/>
      <path id="DejaVuSerif-6c" d="M 1313 331 
L 1856 331 
L 1856 0 
L 184 0 
L 184 331 
L 738 331 
L 738 4531 
L 184 4531 
L 184 4863 
L 1313 4863 
L 1313 331 
z
" transform="scale(0.015625)"/>
      <path id="DejaVuSerif-75" d="M 2266 3322 
L 3341 3322 
L 3341 331 
L 3884 331 
L 3884 0 
L 2766 0 
L 2766 588 
Q 2606 256 2353 82 
Q 2100 -91 1766 -91 
Q 1213 -91 952 223 
Q 691 538 691 1209 
L 691 2988 
L 172 2988 
L 172 3322 
L 1269 3322 
L 1269 1388 
Q 1269 781 1417 556 
Q 1566 331 1947 331 
Q 2347 331 2556 625 
Q 2766 919 2766 1478 
L 2766 2988 
L 2266 2988 
L 2266 3322 
z
" transform="scale(0.015625)"/>
      <path id="DejaVuSerif-6e" d="M 263 0 
L 263 331 
L 781 331 
L 781 2988 
L 231 2988 
L 231 3322 
L 1356 3322 
L 1356 2731 
Q 1516 3069 1770 3241 
Q 2025 3413 2363 3413 
Q 2913 3413 3172 3097 
Q 3431 2781 3431 2113 
L 3431 331 
L 3944 331 
L 3944 0 
L 2356 0 
L 2356 331 
L 2853 331 
L 2853 1931 
Q 2853 2541 2703 2767 
Q 2553 2994 2175 2994 
Q 1775 2994 1565 2701 
Q 1356 2409 1356 1850 
L 1356 331 
L 1856 331 
L 1856 0 
L 263 0 
z
" transform="scale(0.015625)"/>
      <path id="DejaVuSerif-63" d="M 3291 997 
Q 3169 466 2822 187 
Q 2475 -91 1925 -91 
Q 1200 -91 759 389 
Q 319 869 319 1663 
Q 319 2459 759 2936 
Q 1200 3413 1925 3413 
Q 2241 3413 2553 3339 
Q 2866 3266 3181 3116 
L 3181 2266 
L 2847 2266 
Q 2781 2703 2561 2903 
Q 2341 3103 1931 3103 
Q 1466 3103 1228 2742 
Q 991 2381 991 1663 
Q 991 944 1227 581 
Q 1463 219 1931 219 
Q 2303 219 2525 412 
Q 2747 606 2828 997 
L 3291 997 
z
" transform="scale(0.015625)"/>
      <path id="DejaVuSerif-74" d="M 691 2988 
L 184 2988 
L 184 3322 
L 691 3322 
L 691 4353 
L 1269 4353 
L 1269 3322 
L 2350 3322 
L 2350 2988 
L 1269 2988 
L 1269 878 
Q 1269 456 1350 337 
Q 1431 219 1650 219 
Q 1875 219 1978 351 
Q 2081 484 2088 781 
L 2522 781 
Q 2497 328 2275 118 
Q 2053 -91 1600 -91 
Q 1103 -91 897 129 
Q 691 350 691 878 
L 691 2988 
z
" transform="scale(0.015625)"/>
      <path id="DejaVuSerif-68" d="M 263 0 
L 263 331 
L 781 331 
L 781 4531 
L 231 4531 
L 231 4863 
L 1356 4863 
L 1356 2731 
Q 1516 3069 1770 3241 
Q 2025 3413 2363 3413 
Q 2913 3413 3172 3097 
Q 3431 2781 3431 2113 
L 3431 331 
L 3944 331 
L 3944 0 
L 2356 0 
L 2356 331 
L 2853 331 
L 2853 1931 
Q 2853 2541 2704 2764 
Q 2556 2988 2175 2988 
Q 1775 2988 1565 2697 
Q 1356 2406 1356 1850 
L 1356 331 
L 1856 331 
L 1856 0 
L 263 0 
z
" transform="scale(0.015625)"/>
      <path id="DejaVuSerif-6b" d="M 1831 0 
L 219 0 
L 219 331 
L 738 331 
L 738 4531 
L 184 4531 
L 184 4863 
L 1313 4863 
L 1313 1697 
L 2713 2988 
L 2234 2988 
L 2234 3322 
L 3738 3322 
L 3738 2988 
L 3169 2988 
L 2181 2075 
L 3444 331 
L 3922 331 
L 3922 0 
L 2284 0 
L 2284 331 
L 2759 331 
L 1766 1697 
L 1313 1275 
L 1313 331 
L 1831 331 
L 1831 0 
z
" transform="scale(0.015625)"/>
      <path id="DejaVuSerif-4b" d="M 353 0 
L 353 331 
L 947 331 
L 947 4331 
L 353 4331 
L 353 4666 
L 2175 4666 
L 2175 4331 
L 1581 4331 
L 1581 2566 
L 3591 4331 
L 3084 4331 
L 3084 4666 
L 4634 4666 
L 4634 4331 
L 4109 4331 
L 2106 2572 
L 4347 331 
L 4878 331 
L 4878 0 
L 3794 0 
L 1581 2216 
L 1581 331 
L 2175 331 
L 2175 0 
L 353 0 
z
" transform="scale(0.015625)"/>
      <path id="DejaVuSerif-5f" d="M 3200 -1259 
L 3200 -1509 
L 0 -1509 
L 0 -1259 
L 3200 -1259 
z
" transform="scale(0.015625)"/>
      <path id="DejaVuSerif-28" d="M 2041 -997 
Q 1281 -656 893 83 
Q 506 822 506 1931 
Q 506 3044 893 3783 
Q 1281 4522 2041 4863 
L 2041 4556 
Q 1559 4225 1350 3623 
Q 1141 3022 1141 1931 
Q 1141 844 1350 242 
Q 1559 -359 2041 -691 
L 2041 -997 
z
" transform="scale(0.015625)"/>
      <path id="DejaVuSerif-78" d="M 1863 2028 
L 2559 2988 
L 2113 2988 
L 2113 3322 
L 3391 3322 
L 3391 2988 
L 2950 2988 
L 2059 1759 
L 3097 331 
L 3531 331 
L 3531 0 
L 1997 0 
L 1997 331 
L 2419 331 
L 1697 1325 
L 972 331 
L 1403 331 
L 1403 0 
L 141 0 
L 141 331 
L 581 331 
L 1497 1594 
L 488 2988 
L 78 2988 
L 78 3322 
L 1563 3322 
L 1563 2988 
L 1166 2988 
L 1863 2028 
z
" transform="scale(0.015625)"/>
      <path id="DejaVuSerif-29" d="M 453 -997 
L 453 -691 
Q 934 -359 1145 242 
Q 1356 844 1356 1931 
Q 1356 3022 1145 3623 
Q 934 4225 453 4556 
L 453 4863 
Q 1216 4522 1603 3783 
Q 1991 3044 1991 1931 
Q 1991 822 1603 83 
Q 1216 -656 453 -997 
z
" transform="scale(0.015625)"/>
     </defs>
     <use xlink:href="#DejaVuSerif-4d"/>
     <use xlink:href="#DejaVuSerif-6f" transform="translate(102.392578 0)"/>
     <use xlink:href="#DejaVuSerif-64" transform="translate(162.597656 0)"/>
     <use xlink:href="#DejaVuSerif-69" transform="translate(226.611328 0)"/>
     <use xlink:href="#DejaVuSerif-66" transform="translate(258.59375 0)"/>
     <use xlink:href="#DejaVuSerif-69" transform="translate(295.605469 0)"/>
     <use xlink:href="#DejaVuSerif-65" transform="translate(327.587891 0)"/>
     <use xlink:href="#DejaVuSerif-64" transform="translate(386.767578 0)"/>
     <use xlink:href="#DejaVuSerif-20" transform="translate(450.78125 0)"/>
     <use xlink:href="#DejaVuSerif-62" transform="translate(482.568359 0)"/>
     <use xlink:href="#DejaVuSerif-65" transform="translate(546.582031 0)"/>
     <use xlink:href="#DejaVuSerif-73" transform="translate(605.761719 0)"/>
     <use xlink:href="#DejaVuSerif-73" transform="translate(657.080078 0)"/>
     <use xlink:href="#DejaVuSerif-65" transform="translate(708.398438 0)"/>
     <use xlink:href="#DejaVuSerif-6c" transform="translate(767.578125 0)"/>
     <use xlink:href="#DejaVuSerif-20" transform="translate(799.560547 0)"/>
     <use xlink:href="#DejaVuSerif-66" transform="translate(831.347656 0)"/>
     <use xlink:href="#DejaVuSerif-75" transform="translate(868.359375 0)"/>
     <use xlink:href="#DejaVuSerif-6e" transform="translate(932.763672 0)"/>
     <use xlink:href="#DejaVuSerif-63" transform="translate(997.167969 0)"/>
     <use xlink:href="#DejaVuSerif-74" transform="translate(1053.173828 0)"/>
     <use xlink:href="#DejaVuSerif-69" transform="translate(1093.359375 0)"/>
     <use xlink:href="#DejaVuSerif-6f" transform="translate(1125.341797 0)"/>
     <use xlink:href="#DejaVuSerif-6e" transform="translate(1185.546875 0)"/>
     <use xlink:href="#DejaVuSerif-20" transform="translate(1249.951172 0)"/>
     <use xlink:href="#DejaVuSerif-6f" transform="translate(1281.738281 0)"/>
     <use xlink:href="#DejaVuSerif-66" transform="translate(1341.943359 0)"/>
     <use xlink:href="#DejaVuSerif-20" transform="translate(1378.955078 0)"/>
     <use xlink:href="#DejaVuSerif-74" transform="translate(1410.742188 0)"/>
     <use xlink:href="#DejaVuSerif-68" transform="translate(1450.927734 0)"/>
     <use xlink:href="#DejaVuSerif-65" transform="translate(1515.332031 0)"/>
     <use xlink:href="#DejaVuSerif-20" transform="translate(1574.511719 0)"/>
     <use xlink:href="#DejaVuSerif-73" transform="translate(1606.298828 0)"/>
     <use xlink:href="#DejaVuSerif-65" transform="translate(1657.617188 0)"/>
     <use xlink:href="#DejaVuSerif-63" transform="translate(1716.796875 0)"/>
     <use xlink:href="#DejaVuSerif-6f" transform="translate(1772.802734 0)"/>
     <use xlink:href="#DejaVuSerif-6e" transform="translate(1833.007812 0)"/>
     <use xlink:href="#DejaVuSerif-64" transform="translate(1897.412109 0)"/>
     <use xlink:href="#DejaVuSerif-20" transform="translate(1961.425781 0)"/>
     <use xlink:href="#DejaVuSerif-6b" transform="translate(1993.212891 0)"/>
     <use xlink:href="#DejaVuSerif-69" transform="translate(2053.808594 0)"/>
     <use xlink:href="#DejaVuSerif-6e" transform="translate(2085.791016 0)"/>
     <use xlink:href="#DejaVuSerif-64" transform="translate(2150.195312 0)"/>
     <use xlink:href="#DejaVuSerif-20" transform="translate(2214.208984 0)"/>
     <use xlink:href="#DejaVuSerif-4b" transform="translate(2245.996094 0)"/>
     <use xlink:href="#DejaVuSerif-5f" transform="translate(2320.703125 0)"/>
     <use xlink:href="#DejaVuSerif-6e" transform="translate(2370.703125 0)"/>
     <use xlink:href="#DejaVuSerif-75" transform="translate(2435.107422 0)"/>
     <use xlink:href="#DejaVuSerif-20" transform="translate(2499.511719 0)"/>
     <use xlink:href="#DejaVuSerif-28" transform="translate(2531.298828 0)"/>
     <use xlink:href="#DejaVuSerif-78" transform="translate(2570.3125 0)"/>
     <use xlink:href="#DejaVuSerif-29" transform="translate(2626.708984 0)"/>
    </g>
   </g>
   <g id="legend_1">
    <g id="patch_7">
     <path d="M 283.333438 89.790469 
L 352.4975 89.790469 
Q 354.4975 89.790469 354.4975 87.790469 
L 354.4975 30.077969 
Q 354.4975 28.077969 352.4975 28.077969 
L 283.333438 28.077969 
Q 281.333438 28.077969 281.333438 30.077969 
L 281.333438 87.790469 
Q 281.333438 89.790469 283.333438 89.790469 
z
" style="fill: #ffffff; opacity: 0.8; stroke: #cccccc; stroke-linejoin: miter"/>
    </g>
    <g id="line2d_29">
     <path d="M 285.333438 36.176406 
L 295.333438 36.176406 
L 305.333438 36.176406 
" style="fill: none; stroke: #1f77b4; stroke-width: 1.5; stroke-linecap: square"/>
    </g>
    <g id="text_14">
     <!-- nu=0.0 -->
     <g transform="translate(313.333438 39.676406) scale(0.1 -0.1)">
      <defs>
       <path id="DejaVuSerif-3d" d="M 678 2894 
L 4684 2894 
L 4684 2394 
L 678 2394 
L 678 2894 
z
M 678 1619 
L 4684 1619 
L 4684 1119 
L 678 1119 
L 678 1619 
z
" transform="scale(0.015625)"/>
       <path id="DejaVuSerif-2e" d="M 603 325 
Q 603 500 722 622 
Q 841 744 1019 744 
Q 1191 744 1312 622 
Q 1434 500 1434 325 
Q 1434 153 1312 31 
Q 1191 -91 1019 -91 
Q 841 -91 722 29 
Q 603 150 603 325 
z
" transform="scale(0.015625)"/>
      </defs>
      <use xlink:href="#DejaVuSerif-6e"/>
      <use xlink:href="#DejaVuSerif-75" transform="translate(64.404297 0)"/>
      <use xlink:href="#DejaVuSerif-3d" transform="translate(128.808594 0)"/>
      <use xlink:href="#DejaVuSerif-30" transform="translate(212.597656 0)"/>
      <use xlink:href="#DejaVuSerif-2e" transform="translate(276.220703 0)"/>
      <use xlink:href="#DejaVuSerif-30" transform="translate(308.007812 0)"/>
     </g>
    </g>
    <g id="line2d_30">
     <path d="M 285.333438 50.854531 
L 295.333438 50.854531 
L 305.333438 50.854531 
" style="fill: none; stroke: #ff7f0e; stroke-width: 1.5; stroke-linecap: square"/>
    </g>
    <g id="text_15">
     <!-- nu=0.5 -->
     <g transform="translate(313.333438 54.354531) scale(0.1 -0.1)">
      <use xlink:href="#DejaVuSerif-6e"/>
      <use xlink:href="#DejaVuSerif-75" transform="translate(64.404297 0)"/>
      <use xlink:href="#DejaVuSerif-3d" transform="translate(128.808594 0)"/>
      <use xlink:href="#DejaVuSerif-30" transform="translate(212.597656 0)"/>
      <use xlink:href="#DejaVuSerif-2e" transform="translate(276.220703 0)"/>
      <use xlink:href="#DejaVuSerif-35" transform="translate(308.007812 0)"/>
     </g>
    </g>
    <g id="line2d_31">
     <path d="M 285.333438 65.532656 
L 295.333438 65.532656 
L 305.333438 65.532656 
" style="fill: none; stroke: #2ca02c; stroke-width: 1.5; stroke-linecap: square"/>
    </g>
    <g id="text_16">
     <!-- nu=1.0 -->
     <g transform="translate(313.333438 69.032656) scale(0.1 -0.1)">
      <use xlink:href="#DejaVuSerif-6e"/>
      <use xlink:href="#DejaVuSerif-75" transform="translate(64.404297 0)"/>
      <use xlink:href="#DejaVuSerif-3d" transform="translate(128.808594 0)"/>
      <use xlink:href="#DejaVuSerif-31" transform="translate(212.597656 0)"/>
      <use xlink:href="#DejaVuSerif-2e" transform="translate(276.220703 0)"/>
      <use xlink:href="#DejaVuSerif-30" transform="translate(308.007812 0)"/>
     </g>
    </g>
    <g id="line2d_32">
     <path d="M 285.333438 80.210781 
L 295.333438 80.210781 
L 305.333438 80.210781 
" style="fill: none; stroke: #d62728; stroke-width: 1.5; stroke-linecap: square"/>
    </g>
    <g id="text_17">
     <!-- nu=2.0 -->
     <g transform="translate(313.333438 83.710781) scale(0.1 -0.1)">
      <use xlink:href="#DejaVuSerif-6e"/>
      <use xlink:href="#DejaVuSerif-75" transform="translate(64.404297 0)"/>
      <use xlink:href="#DejaVuSerif-3d" transform="translate(128.808594 0)"/>
      <use xlink:href="#DejaVuSerif-32" transform="translate(212.597656 0)"/>
      <use xlink:href="#DejaVuSerif-2e" transform="translate(276.220703 0)"/>
      <use xlink:href="#DejaVuSerif-30" transform="translate(308.007812 0)"/>
     </g>
    </g>
   </g>
  </g>
 </g>
 <defs>
  <clipPath id="p8f52760add">
   <rect x="24.6975" y="23.077969" width="334.8" height="238.392"/>
  </clipPath>
 </defs>
</svg>
