<?xml version="1.0" encoding="utf-8" standalone="no"?>
<!DOCTYPE svg PUBLIC "-//W3C//DTD SVG 1.1//EN"
  "http://www.w3.org/Graphics/SVG/1.1/DTD/svg11.dtd">
<svg xmlns:xlink="http://www.w3.org/1999/xlink" width="419.510937pt" height="347.183937pt" viewBox="0 0 419.510937 347.183937" xmlns="http://www.w3.org/2000/svg" version="1.1">
 <metadata>
  <rdf:RDF xmlns:dc="http://purl.org/dc/elements/1.1/" xmlns:cc="http://creativecommons.org/ns#" xmlns:rdf="http://www.w3.org/1999/02/22-rdf-syntax-ns#">
   <cc:Work>
    <dc:type rdf:resource="http://purl.org/dc/dcmitype/StillImage"/>
    <dc:date>2026-01-11T04:10:47.939304</dc:date>
    <dc:format>image/svg+xml</dc:format>
    <dc:creator>
     <cc:Agent>
      <dc:title>Matplotlib v3.10.1, https://matplotlib.org/</dc:title>
     </cc:Agent>
    </dc:creator>
   </cc:Work>
  </rdf:RDF>
 </metadata>
 <defs>
  <style type="text/css">*{stroke-linejoin: round; stroke-linecap: butt}</style>
 </defs>
 <g id="figure_1">
  <g id="patch_1">
   <path d="M 0 347.183937 
L 419.510937 347.183937 
L 419.510937 0 
L 0 0 
z
" style="fill: #ffffff"/>
  </g>
  <g id="axes_1">
   <g id="patch_2">
    <path d="M 45.193438 309.228 
L 412.310937 309.228 
L 412.310937 7.2 
L 45.193438 7.2 
z
" style="fill: #ffffff"/>
   </g>
   <g id="matplotlib.axis_1">
    <g id="xtick_1">
     <g id="line2d_1">
      <defs>
       <path id="me21db239f4" d="M 0 0 
L 0 -3.5 
" style="stroke: #000000; stroke-width: 0.8"/>
      </defs>
      <g>
       <use xlink:href="#me21db239f4" x="45.193438" y="309.228" style="stroke: #000000; stroke-width: 0.8"/>
      </g>
     </g>
     <g id="text_1">
      <!-- $\mathdefault{10^{-3}}$ -->
      <g transform="translate(32.323438 321.086281) scale(0.11 -0.11)">
       <defs>
        <path id="DejaVuSerif-31" d="M 909 0 
L 909 331 
L 1722 331 
L 1722 4213 
L 781 3603 
L 781 4013 
L 1919 4750 
L 2350 4750 
L 2350 331 
L 3163 331 
L 3163 0 
L 909 0 
z
" transform="scale(0.015625)"/>
        <path id="DejaVuSerif-30" d="M 2034 219 
Q 2513 219 2750 744 
Q 2988 1269 2988 2328 
Q 2988 3391 2750 3916 
Q 2513 4441 2034 4441 
Q 1556 4441 1318 3916 
Q 1081 3391 1081 2328 
Q 1081 1269 1318 744 
Q 1556 219 2034 219 
z
M 2034 -91 
Q 1275 -91 848 546 
Q 422 1184 422 2328 
Q 422 3475 848 4112 
Q 1275 4750 2034 4750 
Q 2797 4750 3222 4112 
Q 3647 3475 3647 2328 
Q 3647 1184 3222 546 
Q 2797 -91 2034 -91 
z
" transform="scale(0.015625)"/>
        <path id="DejaVuSerif-2212" d="M 678 2259 
L 4684 2259 
L 4684 1753 
L 678 1753 
L 678 2259 
z
" transform="scale(0.015625)"/>
        <path id="DejaVuSerif-33" d="M 622 4469 
Q 988 4606 1323 4678 
Q 1659 4750 1953 4750 
Q 2638 4750 3022 4454 
Q 3406 4159 3406 3634 
Q 3406 3213 3140 2930 
Q 2875 2647 2388 2547 
Q 2963 2466 3280 2130 
Q 3597 1794 3597 1259 
Q 3597 606 3158 257 
Q 2719 -91 1894 -91 
Q 1528 -91 1179 -12 
Q 831 66 488 225 
L 488 1131 
L 838 1131 
Q 869 681 1141 450 
Q 1413 219 1906 219 
Q 2384 219 2661 495 
Q 2938 772 2938 1253 
Q 2938 1803 2653 2086 
Q 2369 2369 1819 2369 
L 1522 2369 
L 1522 2688 
L 1678 2688 
Q 2225 2688 2498 2914 
Q 2772 3141 2772 3597 
Q 2772 4006 2547 4223 
Q 2322 4441 1900 4441 
Q 1478 4441 1245 4241 
Q 1013 4041 972 3647 
L 622 3647 
L 622 4469 
z
" transform="scale(0.015625)"/>
       </defs>
       <use xlink:href="#DejaVuSerif-31" transform="translate(0 0.7125)"/>
       <use xlink:href="#DejaVuSerif-30" transform="translate(63.623047 0.7125)"/>
       <use xlink:href="#DejaVuSerif-2212" transform="translate(128.154453 37.046875) scale(0.7)"/>
       <use xlink:href="#DejaVuSerif-33" transform="translate(186.806797 37.046875) scale(0.7)"/>
      </g>
     </g>
    </g>
    <g id="xtick_2">
     <g id="line2d_2">
      <g>
       <use xlink:href="#me21db239f4" x="115.12058" y="309.228" style="stroke: #000000; stroke-width: 0.8"/>
      </g>
     </g>
     <g id="text_2">
      <!-- $\mathdefault{10^{-2}}$ -->
      <g transform="translate(102.25058 321.086281) scale(0.11 -0.11)">
       <defs>
        <path id="DejaVuSerif-32" d="M 819 3553 
L 469 3553 
L 469 4384 
Q 803 4563 1142 4656 
Q 1481 4750 1806 4750 
Q 2534 4750 2956 4397 
Q 3378 4044 3378 3438 
Q 3378 2753 2422 1800 
Q 2347 1728 2309 1691 
L 1131 513 
L 3078 513 
L 3078 1088 
L 3444 1088 
L 3444 0 
L 434 0 
L 434 341 
L 1850 1753 
Q 2319 2222 2519 2614 
Q 2719 3006 2719 3438 
Q 2719 3909 2473 4175 
Q 2228 4441 1797 4441 
Q 1350 4441 1106 4219 
Q 863 3997 819 3553 
z
" transform="scale(0.015625)"/>
       </defs>
       <use xlink:href="#DejaVuSerif-31" transform="translate(0 0.7125)"/>
       <use xlink:href="#DejaVuSerif-30" transform="translate(63.623047 0.7125)"/>
       <use xlink:href="#DejaVuSerif-2212" transform="translate(128.154453 37.046875) scale(0.7)"/>
       <use xlink:href="#DejaVuSerif-32" transform="translate(186.806797 37.046875) scale(0.7)"/>
      </g>
     </g>
    </g>
    <g id="xtick_3">
     <g id="line2d_3">
      <g>
       <use xlink:href="#me21db239f4" x="185.047723" y="309.228" style="stroke: #000000; stroke-width: 0.8"/>
      </g>
     </g>
     <g id="text_3">
      <!-- $\mathdefault{10^{-1}}$ -->
      <g transform="translate(172.177723 321.086281) scale(0.11 -0.11)">
       <use xlink:href="#DejaVuSerif-31" transform="translate(0 0.7125)"/>
       <use xlink:href="#DejaVuSerif-30" transform="translate(63.623047 0.7125)"/>
       <use xlink:href="#DejaVuSerif-2212" transform="translate(128.154453 37.046875) scale(0.7)"/>
       <use xlink:href="#DejaVuSerif-31" transform="translate(186.806797 37.046875) scale(0.7)"/>
      </g>
     </g>
    </g>
    <g id="xtick_4">
     <g id="line2d_4">
      <g>
       <use xlink:href="#me21db239f4" x="254.974866" y="309.228" style="stroke: #000000; stroke-width: 0.8"/>
      </g>
     </g>
     <g id="text_4">
      <!-- $\mathdefault{10^{0}}$ -->
      <g transform="translate(245.294866 321.086281) scale(0.11 -0.11)">
       <use xlink:href="#DejaVuSerif-31" transform="translate(0 0.7125)"/>
       <use xlink:href="#DejaVuSerif-30" transform="translate(63.623047 0.7125)"/>
       <use xlink:href="#DejaVuSerif-30" transform="translate(128.154453 37.046875) scale(0.7)"/>
      </g>
     </g>
    </g>
    <g id="xtick_5">
     <g id="line2d_5">
      <g>
       <use xlink:href="#me21db239f4" x="324.902009" y="309.228" style="stroke: #000000; stroke-width: 0.8"/>
      </g>
     </g>
     <g id="text_5">
      <!-- $\mathdefault{10^{1}}$ -->
      <g transform="translate(315.222009 321.086281) scale(0.11 -0.11)">
       <use xlink:href="#DejaVuSerif-31" transform="translate(0 0.7125)"/>
       <use xlink:href="#DejaVuSerif-30" transform="translate(63.623047 0.7125)"/>
       <use xlink:href="#DejaVuSerif-31" transform="translate(128.154453 37.046875) scale(0.7)"/>
      </g>
     </g>
    </g>
    <g id="xtick_6">
     <g id="line2d_6">
      <g>
       <use xlink:href="#me21db239f4" x="394.829152" y="309.228" style="stroke: #000000; stroke-width: 0.8"/>
      </g>
     </g>
     <g id="text_6">
      <!-- $\mathdefault{10^{2}}$ -->
      <g transform="translate(385.149152 321.086281) scale(0.11 -0.11)">
       <use xlink:href="#DejaVuSerif-31" transform="translate(0 0.7125)"/>
       <use xlink:href="#DejaVuSerif-30" transform="translate(63.623047 0.7125)"/>
       <use xlink:href="#DejaVuSerif-32" transform="translate(128.154453 37.046875) scale(0.7)"/>
      </g>
     </g>
    </g>
    <g id="xtick_7">
     <g id="line2d_7">
      <defs>
       <path id="m22c69415e2" d="M 0 0 
L 0 -2 
" style="stroke: #000000; stroke-width: 0.6"/>
      </defs>
      <g>
       <use xlink:href="#m22c69415e2" x="66.243605" y="309.228" style="stroke: #000000; stroke-width: 0.6"/>
      </g>
     </g>
    </g>
    <g id="xtick_8">
     <g id="line2d_8">
      <g>
       <use xlink:href="#m22c69415e2" x="78.557164" y="309.228" style="stroke: #000000; stroke-width: 0.6"/>
      </g>
     </g>
    </g>
    <g id="xtick_9">
     <g id="line2d_9">
      <g>
       <use xlink:href="#m22c69415e2" x="87.293773" y="309.228" style="stroke: #000000; stroke-width: 0.6"/>
      </g>
     </g>
    </g>
    <g id="xtick_10">
     <g id="line2d_10">
      <g>
       <use xlink:href="#m22c69415e2" x="94.070413" y="309.228" style="stroke: #000000; stroke-width: 0.6"/>
      </g>
     </g>
    </g>
    <g id="xtick_11">
     <g id="line2d_11">
      <g>
       <use xlink:href="#m22c69415e2" x="99.607331" y="309.228" style="stroke: #000000; stroke-width: 0.6"/>
      </g>
     </g>
    </g>
    <g id="xtick_12">
     <g id="line2d_12">
      <g>
       <use xlink:href="#m22c69415e2" x="104.288729" y="309.228" style="stroke: #000000; stroke-width: 0.6"/>
      </g>
     </g>
    </g>
    <g id="xtick_13">
     <g id="line2d_13">
      <g>
       <use xlink:href="#m22c69415e2" x="108.34394" y="309.228" style="stroke: #000000; stroke-width: 0.6"/>
      </g>
     </g>
    </g>
    <g id="xtick_14">
     <g id="line2d_14">
      <g>
       <use xlink:href="#m22c69415e2" x="111.92089" y="309.228" style="stroke: #000000; stroke-width: 0.6"/>
      </g>
     </g>
    </g>
    <g id="xtick_15">
     <g id="line2d_15">
      <g>
       <use xlink:href="#m22c69415e2" x="136.170748" y="309.228" style="stroke: #000000; stroke-width: 0.6"/>
      </g>
     </g>
    </g>
    <g id="xtick_16">
     <g id="line2d_16">
      <g>
       <use xlink:href="#m22c69415e2" x="148.484306" y="309.228" style="stroke: #000000; stroke-width: 0.6"/>
      </g>
     </g>
    </g>
    <g id="xtick_17">
     <g id="line2d_17">
      <g>
       <use xlink:href="#m22c69415e2" x="157.220915" y="309.228" style="stroke: #000000; stroke-width: 0.6"/>
      </g>
     </g>
    </g>
    <g id="xtick_18">
     <g id="line2d_18">
      <g>
       <use xlink:href="#m22c69415e2" x="163.997556" y="309.228" style="stroke: #000000; stroke-width: 0.6"/>
      </g>
     </g>
    </g>
    <g id="xtick_19">
     <g id="line2d_19">
      <g>
       <use xlink:href="#m22c69415e2" x="169.534474" y="309.228" style="stroke: #000000; stroke-width: 0.6"/>
      </g>
     </g>
    </g>
    <g id="xtick_20">
     <g id="line2d_20">
      <g>
       <use xlink:href="#m22c69415e2" x="174.215872" y="309.228" style="stroke: #000000; stroke-width: 0.6"/>
      </g>
     </g>
    </g>
    <g id="xtick_21">
     <g id="line2d_21">
      <g>
       <use xlink:href="#m22c69415e2" x="178.271083" y="309.228" style="stroke: #000000; stroke-width: 0.6"/>
      </g>
     </g>
    </g>
    <g id="xtick_22">
     <g id="line2d_22">
      <g>
       <use xlink:href="#m22c69415e2" x="181.848033" y="309.228" style="stroke: #000000; stroke-width: 0.6"/>
      </g>
     </g>
    </g>
    <g id="xtick_23">
     <g id="line2d_23">
      <g>
       <use xlink:href="#m22c69415e2" x="206.097891" y="309.228" style="stroke: #000000; stroke-width: 0.6"/>
      </g>
     </g>
    </g>
    <g id="xtick_24">
     <g id="line2d_24">
      <g>
       <use xlink:href="#m22c69415e2" x="218.411449" y="309.228" style="stroke: #000000; stroke-width: 0.6"/>
      </g>
     </g>
    </g>
    <g id="xtick_25">
     <g id="line2d_25">
      <g>
       <use xlink:href="#m22c69415e2" x="227.148058" y="309.228" style="stroke: #000000; stroke-width: 0.6"/>
      </g>
     </g>
    </g>
    <g id="xtick_26">
     <g id="line2d_26">
      <g>
       <use xlink:href="#m22c69415e2" x="233.924699" y="309.228" style="stroke: #000000; stroke-width: 0.6"/>
      </g>
     </g>
    </g>
    <g id="xtick_27">
     <g id="line2d_27">
      <g>
       <use xlink:href="#m22c69415e2" x="239.461617" y="309.228" style="stroke: #000000; stroke-width: 0.6"/>
      </g>
     </g>
    </g>
    <g id="xtick_28">
     <g id="line2d_28">
      <g>
       <use xlink:href="#m22c69415e2" x="244.143015" y="309.228" style="stroke: #000000; stroke-width: 0.6"/>
      </g>
     </g>
    </g>
    <g id="xtick_29">
     <g id="line2d_29">
      <g>
       <use xlink:href="#m22c69415e2" x="248.198226" y="309.228" style="stroke: #000000; stroke-width: 0.6"/>
      </g>
     </g>
    </g>
    <g id="xtick_30">
     <g id="line2d_30">
      <g>
       <use xlink:href="#m22c69415e2" x="251.775175" y="309.228" style="stroke: #000000; stroke-width: 0.6"/>
      </g>
     </g>
    </g>
    <g id="xtick_31">
     <g id="line2d_31">
      <g>
       <use xlink:href="#m22c69415e2" x="276.025034" y="309.228" style="stroke: #000000; stroke-width: 0.6"/>
      </g>
     </g>
    </g>
    <g id="xtick_32">
     <g id="line2d_32">
      <g>
       <use xlink:href="#m22c69415e2" x="288.338592" y="309.228" style="stroke: #000000; stroke-width: 0.6"/>
      </g>
     </g>
    </g>
    <g id="xtick_33">
     <g id="line2d_33">
      <g>
       <use xlink:href="#m22c69415e2" x="297.075201" y="309.228" style="stroke: #000000; stroke-width: 0.6"/>
      </g>
     </g>
    </g>
    <g id="xtick_34">
     <g id="line2d_34">
      <g>
       <use xlink:href="#m22c69415e2" x="303.851841" y="309.228" style="stroke: #000000; stroke-width: 0.6"/>
      </g>
     </g>
    </g>
    <g id="xtick_35">
     <g id="line2d_35">
      <g>
       <use xlink:href="#m22c69415e2" x="309.38876" y="309.228" style="stroke: #000000; stroke-width: 0.6"/>
      </g>
     </g>
    </g>
    <g id="xtick_36">
     <g id="line2d_36">
      <g>
       <use xlink:href="#m22c69415e2" x="314.070157" y="309.228" style="stroke: #000000; stroke-width: 0.6"/>
      </g>
     </g>
    </g>
    <g id="xtick_37">
     <g id="line2d_37">
      <g>
       <use xlink:href="#m22c69415e2" x="318.125369" y="309.228" style="stroke: #000000; stroke-width: 0.6"/>
      </g>
     </g>
    </g>
    <g id="xtick_38">
     <g id="line2d_38">
      <g>
       <use xlink:href="#m22c69415e2" x="321.702318" y="309.228" style="stroke: #000000; stroke-width: 0.6"/>
      </g>
     </g>
    </g>
    <g id="xtick_39">
     <g id="line2d_39">
      <g>
       <use xlink:href="#m22c69415e2" x="345.952176" y="309.228" style="stroke: #000000; stroke-width: 0.6"/>
      </g>
     </g>
    </g>
    <g id="xtick_40">
     <g id="line2d_40">
      <g>
       <use xlink:href="#m22c69415e2" x="358.265735" y="309.228" style="stroke: #000000; stroke-width: 0.6"/>
      </g>
     </g>
    </g>
    <g id="xtick_41">
     <g id="line2d_41">
      <g>
       <use xlink:href="#m22c69415e2" x="367.002344" y="309.228" style="stroke: #000000; stroke-width: 0.6"/>
      </g>
     </g>
    </g>
    <g id="xtick_42">
     <g id="line2d_42">
      <g>
       <use xlink:href="#m22c69415e2" x="373.778984" y="309.228" style="stroke: #000000; stroke-width: 0.6"/>
      </g>
     </g>
    </g>
    <g id="xtick_43">
     <g id="line2d_43">
      <g>
       <use xlink:href="#m22c69415e2" x="379.315903" y="309.228" style="stroke: #000000; stroke-width: 0.6"/>
      </g>
     </g>
    </g>
    <g id="xtick_44">
     <g id="line2d_44">
      <g>
       <use xlink:href="#m22c69415e2" x="383.9973" y="309.228" style="stroke: #000000; stroke-width: 0.6"/>
      </g>
     </g>
    </g>
    <g id="xtick_45">
     <g id="line2d_45">
      <g>
       <use xlink:href="#m22c69415e2" x="388.052511" y="309.228" style="stroke: #000000; stroke-width: 0.6"/>
      </g>
     </g>
    </g>
    <g id="xtick_46">
     <g id="line2d_46">
      <g>
       <use xlink:href="#m22c69415e2" x="391.629461" y="309.228" style="stroke: #000000; stroke-width: 0.6"/>
      </g>
     </g>
    </g>
    <g id="text_7">
     <!-- Kinetic energy $\varepsilon = \gamma - 1$ -->
     <g transform="translate(154.197187 336.993937) scale(0.13 -0.13)">
      <defs>
       <path id="DejaVuSerif-4b" d="M 353 0 
L 353 331 
L 947 331 
L 947 4331 
L 353 4331 
L 353 4666 
L 2175 4666 
L 2175 4331 
L 1581 4331 
L 1581 2566 
L 3591 4331 
L 3084 4331 
L 3084 4666 
L 4634 4666 
L 4634 4331 
L 4109 4331 
L 2106 2572 
L 4347 331 
L 4878 331 
L 4878 0 
L 3794 0 
L 1581 2216 
L 1581 331 
L 2175 331 
L 2175 0 
L 353 0 
z
" transform="scale(0.015625)"/>
       <path id="DejaVuSerif-69" d="M 622 4353 
Q 622 4497 726 4603 
Q 831 4709 978 4709 
Q 1122 4709 1226 4603 
Q 1331 4497 1331 4353 
Q 1331 4206 1228 4103 
Q 1125 4000 978 4000 
Q 831 4000 726 4103 
Q 622 4206 622 4353 
z
M 1356 331 
L 1900 331 
L 1900 0 
L 231 0 
L 231 331 
L 781 331 
L 781 2988 
L 231 2988 
L 231 3322 
L 1356 3322 
L 1356 331 
z
" transform="scale(0.015625)"/>
       <path id="DejaVuSerif-6e" d="M 263 0 
L 263 331 
L 781 331 
L 781 2988 
L 231 2988 
L 231 3322 
L 1356 3322 
L 1356 2731 
Q 1516 3069 1770 3241 
Q 2025 3413 2363 3413 
Q 2913 3413 3172 3097 
Q 3431 2781 3431 2113 
L 3431 331 
L 3944 331 
L 3944 0 
L 2356 0 
L 2356 331 
L 2853 331 
L 2853 1931 
Q 2853 2541 2703 2767 
Q 2553 2994 2175 2994 
Q 1775 2994 1565 2701 
Q 1356 2409 1356 1850 
L 1356 331 
L 1856 331 
L 1856 0 
L 263 0 
z
" transform="scale(0.015625)"/>
       <path id="DejaVuSerif-65" d="M 3469 1600 
L 991 1600 
L 991 1575 
Q 991 903 1244 561 
Q 1497 219 1991 219 
Q 2369 219 2611 417 
Q 2853 616 2950 1006 
L 3413 1006 
Q 3275 459 2904 184 
Q 2534 -91 1931 -91 
Q 1203 -91 761 389 
Q 319 869 319 1663 
Q 319 2450 753 2931 
Q 1188 3413 1894 3413 
Q 2647 3413 3050 2948 
Q 3453 2484 3469 1600 
z
M 2791 1931 
Q 2772 2513 2545 2808 
Q 2319 3103 1894 3103 
Q 1497 3103 1269 2806 
Q 1041 2509 991 1931 
L 2791 1931 
z
" transform="scale(0.015625)"/>
       <path id="DejaVuSerif-74" d="M 691 2988 
L 184 2988 
L 184 3322 
L 691 3322 
L 691 4353 
L 1269 4353 
L 1269 3322 
L 2350 3322 
L 2350 2988 
L 1269 2988 
L 1269 878 
Q 1269 456 1350 337 
Q 1431 219 1650 219 
Q 1875 219 1978 351 
Q 2081 484 2088 781 
L 2522 781 
Q 2497 328 2275 118 
Q 2053 -91 1600 -91 
Q 1103 -91 897 129 
Q 691 350 691 878 
L 691 2988 
z
" transform="scale(0.015625)"/>
       <path id="DejaVuSerif-63" d="M 3291 997 
Q 3169 466 2822 187 
Q 2475 -91 1925 -91 
Q 1200 -91 759 389 
Q 319 869 319 1663 
Q 319 2459 759 2936 
Q 1200 3413 1925 3413 
Q 2241 3413 2553 3339 
Q 2866 3266 3181 3116 
L 3181 2266 
L 2847 2266 
Q 2781 2703 2561 2903 
Q 2341 3103 1931 3103 
Q 1466 3103 1228 2742 
Q 991 2381 991 1663 
Q 991 944 1227 581 
Q 1463 219 1931 219 
Q 2303 219 2525 412 
Q 2747 606 2828 997 
L 3291 997 
z
" transform="scale(0.015625)"/>
       <path id="DejaVuSerif-20" transform="scale(0.015625)"/>
       <path id="DejaVuSerif-72" d="M 3059 3328 
L 3059 2497 
L 2728 2497 
Q 2713 2744 2591 2866 
Q 2469 2988 2234 2988 
Q 1809 2988 1582 2694 
Q 1356 2400 1356 1850 
L 1356 331 
L 2022 331 
L 2022 0 
L 263 0 
L 263 331 
L 781 331 
L 781 2994 
L 231 2994 
L 231 3322 
L 1356 3322 
L 1356 2731 
Q 1525 3078 1790 3245 
Q 2056 3413 2438 3413 
Q 2578 3413 2733 3391 
Q 2888 3369 3059 3328 
z
" transform="scale(0.015625)"/>
       <path id="DejaVuSerif-67" d="M 3359 2988 
L 3359 72 
Q 3359 -644 2965 -1033 
Q 2572 -1422 1844 -1422 
Q 1516 -1422 1216 -1362 
Q 916 -1303 641 -1184 
L 641 -488 
L 941 -488 
Q 997 -813 1206 -963 
Q 1416 -1113 1806 -1113 
Q 2313 -1113 2548 -827 
Q 2784 -541 2784 72 
L 2784 519 
Q 2616 206 2355 57 
Q 2094 -91 1709 -91 
Q 1097 -91 708 395 
Q 319 881 319 1663 
Q 319 2444 706 2928 
Q 1094 3413 1709 3413 
Q 2094 3413 2355 3264 
Q 2616 3116 2784 2803 
L 2784 3322 
L 3909 3322 
L 3909 2988 
L 3359 2988 
z
M 2784 1825 
Q 2784 2422 2554 2737 
Q 2325 3053 1888 3053 
Q 1444 3053 1217 2703 
Q 991 2353 991 1663 
Q 991 975 1217 622 
Q 1444 269 1888 269 
Q 2325 269 2554 583 
Q 2784 897 2784 1497 
L 2784 1825 
z
" transform="scale(0.015625)"/>
       <path id="DejaVuSerif-79" d="M 1381 -609 
L 1600 -56 
L 359 2988 
L -19 2988 
L -19 3322 
L 1509 3322 
L 1509 2988 
L 978 2988 
L 1913 703 
L 2847 2988 
L 2350 2988 
L 2350 3322 
L 3597 3322 
L 3597 2988 
L 3225 2988 
L 1703 -750 
Q 1547 -1138 1356 -1280 
Q 1166 -1422 819 -1422 
Q 672 -1422 517 -1397 
Q 363 -1372 206 -1325 
L 206 -691 
L 500 -691 
Q 519 -903 608 -995 
Q 697 -1088 884 -1088 
Q 1056 -1088 1161 -992 
Q 1266 -897 1381 -609 
z
" transform="scale(0.015625)"/>
       <path id="Cmmi10-22" d="M 172 666 
Q 172 841 248 1006 
Q 325 1172 448 1303 
Q 572 1434 738 1538 
Q 494 1706 494 1972 
Q 494 2256 731 2470 
Q 969 2684 1312 2792 
Q 1656 2900 1931 2900 
Q 2047 2900 2242 2848 
Q 2438 2797 2584 2712 
Q 2731 2628 2731 2528 
Q 2731 2453 2673 2395 
Q 2616 2338 2547 2338 
Q 2519 2338 2405 2405 
Q 2291 2472 2162 2525 
Q 2034 2578 1881 2578 
Q 1650 2578 1373 2523 
Q 1097 2469 887 2333 
Q 678 2197 678 1978 
Q 678 1769 916 1625 
Q 1184 1747 1466 1747 
Q 1966 1747 1966 1569 
Q 1966 1428 1795 1389 
Q 1625 1350 1403 1350 
Q 1103 1350 909 1441 
Q 697 1328 531 1125 
Q 366 922 366 703 
Q 366 497 505 381 
Q 644 266 847 222 
Q 1050 178 1253 178 
Q 1606 178 1878 254 
Q 2150 331 2272 575 
Q 2291 616 2344 616 
Q 2413 594 2413 531 
Q 2413 525 2394 469 
Q 2291 266 2102 128 
Q 1913 -9 1680 -75 
Q 1447 -141 1203 -141 
Q 806 -141 489 71 
Q 172 284 172 666 
z
M 1159 1538 
Q 1272 1516 1416 1516 
Q 1697 1516 1766 1556 
Q 1678 1581 1459 1581 
Q 1300 1581 1159 1538 
z
" transform="scale(0.015625)"/>
       <path id="Cmr10-3d" d="M 481 850 
Q 428 850 393 890 
Q 359 931 359 978 
Q 359 1031 393 1068 
Q 428 1106 481 1106 
L 4500 1106 
Q 4547 1106 4581 1068 
Q 4616 1031 4616 978 
Q 4616 931 4581 890 
Q 4547 850 4500 850 
L 481 850 
z
M 481 2094 
Q 428 2094 393 2131 
Q 359 2169 359 2222 
Q 359 2269 393 2309 
Q 428 2350 481 2350 
L 4500 2350 
Q 4547 2350 4581 2309 
Q 4616 2269 4616 2222 
Q 4616 2169 4581 2131 
Q 4547 2094 4500 2094 
L 481 2094 
z
" transform="scale(0.015625)"/>
       <path id="Cmmi10-b0" d="M 1888 -1253 
Q 1888 -1109 1952 -834 
Q 2016 -559 2108 -248 
Q 2200 63 2266 263 
Q 2291 581 2291 744 
Q 2291 1156 2209 1511 
Q 2128 1866 1903 2105 
Q 1678 2344 1275 2344 
Q 1063 2344 852 2253 
Q 641 2163 489 2000 
Q 338 1838 281 1631 
Q 269 1594 231 1594 
L 153 1594 
Q 103 1594 103 1650 
L 103 1672 
Q 175 1959 358 2226 
Q 541 2494 805 2661 
Q 1069 2828 1363 2828 
Q 1663 2828 1881 2625 
Q 2100 2422 2231 2109 
Q 2363 1797 2420 1478 
Q 2478 1159 2478 878 
Q 2800 1753 3200 2534 
L 3297 2741 
Q 3316 2759 3341 2759 
L 3419 2759 
Q 3469 2759 3469 2700 
Q 3469 2688 3456 2663 
L 3359 2463 
Q 3081 1909 2848 1340 
Q 2616 772 2450 244 
Q 2425 28 2354 -347 
Q 2284 -722 2184 -1045 
Q 2084 -1369 1984 -1381 
Q 1888 -1381 1888 -1253 
z
" transform="scale(0.015625)"/>
       <path id="Cmsy10-a1" d="M 653 1472 
Q 600 1472 565 1512 
Q 531 1553 531 1600 
Q 531 1647 565 1687 
Q 600 1728 653 1728 
L 4325 1728 
Q 4375 1728 4408 1687 
Q 4441 1647 4441 1600 
Q 4441 1553 4408 1512 
Q 4375 1472 4325 1472 
L 653 1472 
z
" transform="scale(0.015625)"/>
       <path id="Cmr10-31" d="M 594 0 
L 594 225 
Q 1394 225 1394 428 
L 1394 3788 
Q 1063 3628 556 3628 
L 556 3853 
Q 1341 3853 1741 4263 
L 1831 4263 
Q 1853 4263 1873 4245 
Q 1894 4228 1894 4206 
L 1894 428 
Q 1894 225 2694 225 
L 2694 0 
L 594 0 
z
" transform="scale(0.015625)"/>
      </defs>
      <use xlink:href="#DejaVuSerif-4b" transform="translate(0 0.421875)"/>
      <use xlink:href="#DejaVuSerif-69" transform="translate(74.707031 0.421875)"/>
      <use xlink:href="#DejaVuSerif-6e" transform="translate(106.689453 0.421875)"/>
      <use xlink:href="#DejaVuSerif-65" transform="translate(171.09375 0.421875)"/>
      <use xlink:href="#DejaVuSerif-74" transform="translate(230.273438 0.421875)"/>
      <use xlink:href="#DejaVuSerif-69" transform="translate(270.458984 0.421875)"/>
      <use xlink:href="#DejaVuSerif-63" transform="translate(302.441406 0.421875)"/>
      <use xlink:href="#DejaVuSerif-20" transform="translate(358.447266 0.421875)"/>
      <use xlink:href="#DejaVuSerif-65" transform="translate(390.234375 0.421875)"/>
      <use xlink:href="#DejaVuSerif-6e" transform="translate(449.414062 0.421875)"/>
      <use xlink:href="#DejaVuSerif-65" transform="translate(513.818359 0.421875)"/>
      <use xlink:href="#DejaVuSerif-72" transform="translate(572.998047 0.421875)"/>
      <use xlink:href="#DejaVuSerif-67" transform="translate(620.800781 0.421875)"/>
      <use xlink:href="#DejaVuSerif-79" transform="translate(684.814453 0.421875)"/>
      <use xlink:href="#DejaVuSerif-20" transform="translate(741.308594 0.421875)"/>
      <use xlink:href="#Cmmi10-22" transform="translate(773.095703 0.421875)"/>
      <use xlink:href="#Cmr10-3d" transform="translate(837.236328 0.421875)"/>
      <use xlink:href="#Cmmi10-b0" transform="translate(932.480469 0.421875)"/>
      <use xlink:href="#Cmsy10-a1" transform="translate(1001.748047 0.421875)"/>
      <use xlink:href="#Cmr10-31" transform="translate(1096.992188 0.421875)"/>
     </g>
    </g>
   </g>
   <g id="matplotlib.axis_2">
    <g id="ytick_1">
     <g id="line2d_47">
      <defs>
       <path id="m0d7a5529af" d="M 0 0 
L 3.5 0 
" style="stroke: #000000; stroke-width: 0.8"/>
      </defs>
      <g>
       <use xlink:href="#m0d7a5529af" x="45.193438" y="309.228" style="stroke: #000000; stroke-width: 0.8"/>
      </g>
     </g>
     <g id="text_8">
      <!-- 0.0 -->
      <g transform="translate(24.2 313.407141) scale(0.11 -0.11)">
       <defs>
        <path id="DejaVuSerif-2e" d="M 603 325 
Q 603 500 722 622 
Q 841 744 1019 744 
Q 1191 744 1312 622 
Q 1434 500 1434 325 
Q 1434 153 1312 31 
Q 1191 -91 1019 -91 
Q 841 -91 722 29 
Q 603 150 603 325 
z
" transform="scale(0.015625)"/>
       </defs>
       <use xlink:href="#DejaVuSerif-30"/>
       <use xlink:href="#DejaVuSerif-2e" transform="translate(63.623047 0)"/>
       <use xlink:href="#DejaVuSerif-30" transform="translate(95.410156 0)"/>
      </g>
     </g>
    </g>
    <g id="ytick_2">
     <g id="line2d_48">
      <g>
       <use xlink:href="#m0d7a5529af" x="45.193438" y="265.050242" style="stroke: #000000; stroke-width: 0.8"/>
      </g>
     </g>
     <g id="text_9">
      <!-- 0.1 -->
      <g transform="translate(24.2 269.229382) scale(0.11 -0.11)">
       <use xlink:href="#DejaVuSerif-30"/>
       <use xlink:href="#DejaVuSerif-2e" transform="translate(63.623047 0)"/>
       <use xlink:href="#DejaVuSerif-31" transform="translate(95.410156 0)"/>
      </g>
     </g>
    </g>
    <g id="ytick_3">
     <g id="line2d_49">
      <g>
       <use xlink:href="#m0d7a5529af" x="45.193438" y="220.872483" style="stroke: #000000; stroke-width: 0.8"/>
      </g>
     </g>
     <g id="text_10">
      <!-- 0.2 -->
      <g transform="translate(24.2 225.051624) scale(0.11 -0.11)">
       <use xlink:href="#DejaVuSerif-30"/>
       <use xlink:href="#DejaVuSerif-2e" transform="translate(63.623047 0)"/>
       <use xlink:href="#DejaVuSerif-32" transform="translate(95.410156 0)"/>
      </g>
     </g>
    </g>
    <g id="ytick_4">
     <g id="line2d_50">
      <g>
       <use xlink:href="#m0d7a5529af" x="45.193438" y="176.694725" style="stroke: #000000; stroke-width: 0.8"/>
      </g>
     </g>
     <g id="text_11">
      <!-- 0.3 -->
      <g transform="translate(24.2 180.873866) scale(0.11 -0.11)">
       <use xlink:href="#DejaVuSerif-30"/>
       <use xlink:href="#DejaVuSerif-2e" transform="translate(63.623047 0)"/>
       <use xlink:href="#DejaVuSerif-33" transform="translate(95.410156 0)"/>
      </g>
     </g>
    </g>
    <g id="ytick_5">
     <g id="line2d_51">
      <g>
       <use xlink:href="#m0d7a5529af" x="45.193438" y="132.516967" style="stroke: #000000; stroke-width: 0.8"/>
      </g>
     </g>
     <g id="text_12">
      <!-- 0.4 -->
      <g transform="translate(24.2 136.696107) scale(0.11 -0.11)">
       <defs>
        <path id="DejaVuSerif-34" d="M 2234 1581 
L 2234 4063 
L 641 1581 
L 2234 1581 
z
M 3609 0 
L 1484 0 
L 1484 331 
L 2234 331 
L 2234 1247 
L 197 1247 
L 197 1588 
L 2241 4750 
L 2859 4750 
L 2859 1581 
L 3750 1581 
L 3750 1247 
L 2859 1247 
L 2859 331 
L 3609 331 
L 3609 0 
z
" transform="scale(0.015625)"/>
       </defs>
       <use xlink:href="#DejaVuSerif-30"/>
       <use xlink:href="#DejaVuSerif-2e" transform="translate(63.623047 0)"/>
       <use xlink:href="#DejaVuSerif-34" transform="translate(95.410156 0)"/>
      </g>
     </g>
    </g>
    <g id="ytick_6">
     <g id="line2d_52">
      <g>
       <use xlink:href="#m0d7a5529af" x="45.193438" y="88.339208" style="stroke: #000000; stroke-width: 0.8"/>
      </g>
     </g>
     <g id="text_13">
      <!-- 0.5 -->
      <g transform="translate(24.2 92.518349) scale(0.11 -0.11)">
       <defs>
        <path id="DejaVuSerif-35" d="M 3219 4666 
L 3219 4153 
L 1081 4153 
L 1081 2816 
Q 1244 2928 1461 2984 
Q 1678 3041 1947 3041 
Q 2703 3041 3140 2622 
Q 3578 2203 3578 1478 
Q 3578 738 3136 323 
Q 2694 -91 1894 -91 
Q 1572 -91 1234 -12 
Q 897 66 544 225 
L 544 1131 
L 897 1131 
Q 925 688 1179 453 
Q 1434 219 1894 219 
Q 2388 219 2653 544 
Q 2919 869 2919 1478 
Q 2919 2084 2655 2407 
Q 2391 2731 1894 2731 
Q 1613 2731 1398 2631 
Q 1184 2531 1019 2322 
L 750 2322 
L 750 4666 
L 3219 4666 
z
" transform="scale(0.015625)"/>
       </defs>
       <use xlink:href="#DejaVuSerif-30"/>
       <use xlink:href="#DejaVuSerif-2e" transform="translate(63.623047 0)"/>
       <use xlink:href="#DejaVuSerif-35" transform="translate(95.410156 0)"/>
      </g>
     </g>
    </g>
    <g id="ytick_7">
     <g id="line2d_53">
      <g>
       <use xlink:href="#m0d7a5529af" x="45.193438" y="44.16145" style="stroke: #000000; stroke-width: 0.8"/>
      </g>
     </g>
     <g id="text_14">
      <!-- 0.6 -->
      <g transform="translate(24.2 48.34059) scale(0.11 -0.11)">
       <defs>
        <path id="DejaVuSerif-36" d="M 2094 219 
Q 2534 219 2771 542 
Q 3009 866 3009 1472 
Q 3009 2078 2771 2401 
Q 2534 2725 2094 2725 
Q 1647 2725 1412 2412 
Q 1178 2100 1178 1509 
Q 1178 888 1415 553 
Q 1653 219 2094 219 
z
M 1075 2569 
Q 1288 2803 1556 2918 
Q 1825 3034 2163 3034 
Q 2859 3034 3264 2615 
Q 3669 2197 3669 1472 
Q 3669 763 3233 336 
Q 2797 -91 2069 -91 
Q 1278 -91 853 498 
Q 428 1088 428 2181 
Q 428 3406 931 4078 
Q 1434 4750 2350 4750 
Q 2597 4750 2869 4703 
Q 3141 4656 3425 4563 
L 3425 3794 
L 3072 3794 
Q 3034 4109 2831 4275 
Q 2628 4441 2284 4441 
Q 1678 4441 1381 3981 
Q 1084 3522 1075 2569 
z
" transform="scale(0.015625)"/>
       </defs>
       <use xlink:href="#DejaVuSerif-30"/>
       <use xlink:href="#DejaVuSerif-2e" transform="translate(63.623047 0)"/>
       <use xlink:href="#DejaVuSerif-36" transform="translate(95.410156 0)"/>
      </g>
     </g>
    </g>
    <g id="text_15">
     <!-- $\varepsilon f(\varepsilon)$ -->
     <g transform="translate(16.95 172.514) rotate(-90) scale(0.13 -0.13)">
      <defs>
       <path id="Cmmi10-66" d="M 622 -1056 
Q 741 -1147 909 -1147 
Q 1138 -1147 1281 -641 
Q 1341 -397 1606 966 
L 1900 2534 
L 1350 2534 
Q 1288 2534 1288 2619 
Q 1313 2759 1369 2759 
L 1941 2759 
L 2016 3175 
Q 2053 3369 2084 3508 
Q 2116 3647 2152 3765 
Q 2188 3884 2259 4031 
Q 2369 4241 2555 4377 
Q 2741 4513 2956 4513 
Q 3097 4513 3230 4461 
Q 3363 4409 3447 4306 
Q 3531 4203 3531 4063 
Q 3531 3900 3423 3779 
Q 3316 3659 3163 3659 
Q 3059 3659 2986 3723 
Q 2913 3788 2913 3891 
Q 2913 4031 3008 4136 
Q 3103 4241 3244 4256 
Q 3125 4347 2950 4347 
Q 2853 4347 2767 4256 
Q 2681 4166 2656 4063 
Q 2616 3900 2478 3181 
L 2400 2759 
L 3059 2759 
Q 3122 2759 3122 2675 
Q 3119 2659 3109 2620 
Q 3100 2581 3083 2557 
Q 3066 2534 3041 2534 
L 2356 2534 
L 2059 972 
Q 2003 631 1929 279 
Q 1856 -72 1723 -442 
Q 1591 -813 1384 -1063 
Q 1178 -1313 897 -1313 
Q 681 -1313 511 -1189 
Q 341 -1066 341 -863 
Q 341 -700 445 -579 
Q 550 -459 709 -459 
Q 816 -459 887 -523 
Q 959 -588 959 -691 
Q 959 -828 857 -942 
Q 756 -1056 622 -1056 
z
" transform="scale(0.015625)"/>
       <path id="Cmr10-28" d="M 1984 -1588 
Q 1628 -1306 1370 -942 
Q 1113 -578 948 -165 
Q 784 247 703 697 
Q 622 1147 622 1600 
Q 622 2059 703 2509 
Q 784 2959 951 3375 
Q 1119 3791 1378 4153 
Q 1638 4516 1984 4788 
Q 1984 4800 2016 4800 
L 2075 4800 
Q 2094 4800 2109 4783 
Q 2125 4766 2125 4744 
Q 2125 4716 2113 4703 
Q 1800 4397 1592 4047 
Q 1384 3697 1257 3301 
Q 1131 2906 1075 2482 
Q 1019 2059 1019 1600 
Q 1019 -434 2106 -1491 
Q 2125 -1509 2125 -1544 
Q 2125 -1559 2108 -1579 
Q 2091 -1600 2075 -1600 
L 2016 -1600 
Q 1984 -1600 1984 -1588 
z
" transform="scale(0.015625)"/>
       <path id="Cmr10-29" d="M 416 -1600 
Q 359 -1600 359 -1544 
Q 359 -1516 372 -1503 
Q 1466 -434 1466 1600 
Q 1466 3634 384 4691 
Q 359 4706 359 4744 
Q 359 4766 376 4783 
Q 394 4800 416 4800 
L 475 4800 
Q 494 4800 506 4788 
Q 966 4425 1272 3906 
Q 1578 3388 1720 2800 
Q 1863 2213 1863 1600 
Q 1863 1147 1786 708 
Q 1709 269 1542 -157 
Q 1375 -584 1119 -945 
Q 863 -1306 506 -1588 
Q 494 -1600 475 -1600 
L 416 -1600 
z
" transform="scale(0.015625)"/>
      </defs>
      <use xlink:href="#Cmmi10-22"/>
      <use xlink:href="#Cmmi10-66" transform="translate(46.582031 0)"/>
      <use xlink:href="#Cmr10-28" transform="translate(95.458984 0)"/>
      <use xlink:href="#Cmmi10-22" transform="translate(134.277344 0)"/>
      <use xlink:href="#Cmr10-29" transform="translate(180.859375 0)"/>
     </g>
    </g>
   </g>
   <g id="line2d_54">
    <path d="M 45.193438 295.210536 
L 48.200605 293.132228 
L 51.102872 290.853331 
L 53.900237 288.373561 
L 56.627669 285.65926 
L 59.320133 282.663699 
L 61.97763 279.370112 
L 64.60016 275.762894 
L 67.22269 271.772209 
L 69.845221 267.369399 
L 72.467751 262.526612 
L 75.125248 257.143675 
L 77.817712 251.177052 
L 80.545143 244.585833 
L 83.342509 237.238789 
L 86.244775 228.982865 
L 89.28691 219.647454 
L 92.538848 208.936177 
L 96.140456 196.287525 
L 100.546306 179.952596 
L 111.490999 138.962986 
L 114.288364 129.585719 
L 116.561224 122.705138 
L 118.519379 117.457764 
L 120.232766 113.482476 
L 121.73635 110.534813 
L 123.065098 108.395998 
L 124.253979 106.883978 
L 125.302991 105.885526 
L 126.282069 105.25252 
L 127.156245 104.941519 
L 127.995455 104.876461 
L 128.799697 105.034993 
L 129.638907 105.436703 
L 130.513084 106.117389 
L 131.422228 107.114566 
L 132.401305 108.523461 
L 133.485285 110.493309 
L 134.639198 113.066751 
L 135.898012 116.43422 
L 137.261728 120.735068 
L 138.765312 126.24549 
L 140.408764 133.152054 
L 142.227052 141.795998 
L 144.290109 152.743093 
L 146.702836 166.81933 
L 149.814905 186.392688 
L 158.137068 239.422265 
L 160.619729 253.449186 
L 162.787688 264.463826 
L 164.745843 273.284548 
L 166.529164 280.329663 
L 168.207583 286.088416 
L 169.816068 290.828973 
L 171.354619 294.682104 
L 172.823236 297.778713 
L 174.256886 300.298738 
L 175.655569 302.325258 
L 177.054251 303.973404 
L 178.487901 305.321182 
L 179.956518 306.396835 
L 181.495069 307.249547 
L 183.173488 307.923845 
L 185.06171 308.439283 
L 187.334569 308.818855 
L 190.271803 309.067764 
L 194.712621 309.1966 
L 206.146852 309.22789 
L 311.572563 309.228 
L 311.572563 309.228 
" clip-path="url(#peecbce207e)" style="fill: none; stroke: #000000; stroke-width: 1.5; stroke-linecap: square"/>
   </g>
   <g id="line2d_55">
    <path d="M 45.193438 308.814632 
L 58.550858 308.43227 
L 68.516472 307.933073 
L 76.523931 307.315769 
L 83.237608 306.580013 
L 89.007174 305.729401 
L 94.112366 304.756437 
L 98.693052 303.661024 
L 102.854133 302.441798 
L 106.70051 301.086472 
L 110.302118 299.582301 
L 113.658957 297.941824 
L 116.84096 296.142268 
L 119.883095 294.168472 
L 122.820329 291.997557 
L 125.652661 289.627927 
L 128.41506 287.026351 
L 131.107524 284.185833 
L 133.765021 281.05835 
L 136.387551 277.627873 
L 139.010081 273.826461 
L 141.632611 269.624885 
L 144.255142 264.994262 
L 146.877672 259.906867 
L 149.535169 254.259528 
L 152.227633 248.009297 
L 154.990031 241.024667 
L 157.822364 233.24984 
L 160.759598 224.531199 
L 163.871667 214.585432 
L 167.228505 203.098524 
L 171.074883 189.111471 
L 176.284976 169.237875 
L 183.27839 142.645466 
L 186.390459 131.707624 
L 188.838153 123.878249 
L 190.90121 117.990799 
L 192.684531 113.543151 
L 194.258049 110.191847 
L 195.656732 107.718408 
L 196.880579 105.980765 
L 197.999525 104.766064 
L 198.978603 104.013228 
L 199.887747 103.585383 
L 200.726957 103.431046 
L 201.531199 103.506733 
L 202.335442 103.807132 
L 203.174651 104.365785 
L 204.048828 105.219447 
L 204.992939 106.45832 
L 206.006984 108.16069 
L 207.12593 110.49026 
L 208.349777 113.581996 
L 209.678526 117.578699 
L 211.112176 122.625634 
L 212.685694 129.014056 
L 214.39908 136.925569 
L 216.322269 146.888727 
L 218.525194 159.514508 
L 221.252626 176.525949 
L 225.72841 206.120558 
L 229.994393 233.773605 
L 232.65189 249.56308 
L 234.854815 261.375077 
L 236.847938 270.88447 
L 238.666225 278.505365 
L 240.344645 284.624138 
L 241.95313 289.671647 
L 243.491681 293.780263 
L 244.960298 297.084979 
L 246.393948 299.775038 
L 247.79263 301.937573 
L 249.191313 303.694686 
L 250.589996 305.098237 
L 252.023646 306.223673 
L 253.527229 307.120559 
L 255.135715 307.821335 
L 256.954002 308.366074 
L 259.086993 308.765201 
L 261.814425 309.035161 
L 265.80067 309.183155 
L 274.612372 309.227276 
L 385.457978 309.228 
L 385.457978 309.228 
" clip-path="url(#peecbce207e)" style="fill: none; stroke-dasharray: 5.55,2.4; stroke-dashoffset: 0; stroke: #000000; stroke-width: 1.5"/>
   </g>
   <g id="line2d_56">
    <path d="M 45.193438 309.174937 
L 76.279161 308.98246 
L 92.99342 308.669584 
L 104.67242 308.238088 
L 113.693924 307.689599 
L 121.071975 307.024351 
L 127.331081 306.242099 
L 132.785943 305.340942 
L 137.646366 304.315827 
L 142.017249 303.170427 
L 146.038462 301.888542 
L 149.744971 300.475388 
L 153.206711 298.919391 
L 156.458648 297.216478 
L 159.570717 295.335594 
L 162.542918 293.278435 
L 165.410218 291.021538 
L 168.172616 288.564123 
L 170.86508 285.871757 
L 173.522578 282.89655 
L 176.145108 279.620387 
L 178.732671 276.026007 
L 181.285267 272.09745 
L 183.837863 267.758193 
L 186.390459 262.977934 
L 188.978022 257.65195 
L 191.565585 251.813971 
L 194.223082 245.258773 
L 196.915546 238.01709 
L 199.677945 229.944441 
L 202.545244 220.873335 
L 205.587379 210.495696 
L 208.874283 198.467048 
L 212.580793 184.026514 
L 217.511149 163.835848 
L 224.749332 134.220866 
L 227.721533 123.036254 
L 230.064327 115.041668 
L 232.022483 109.105881 
L 233.735869 104.593864 
L 235.239453 101.242743 
L 236.533234 98.869312 
L 237.687148 97.187372 
L 238.701193 96.072124 
L 239.610336 95.377261 
L 240.449546 95.003549 
L 241.218821 94.895221 
L 241.95313 95.007378 
L 242.722405 95.356814 
L 243.526648 95.982011 
L 244.365858 96.923722 
L 245.275001 98.283569 
L 246.289046 100.223377 
L 247.373025 102.795453 
L 248.561906 106.210974 
L 249.855687 110.630742 
L 251.25437 116.218094 
L 252.792921 123.300817 
L 254.506307 132.273494 
L 256.429496 143.573648 
L 258.667388 158.098846 
L 261.534688 178.267622 
L 270.136587 239.793431 
L 272.444413 254.162785 
L 274.437536 265.241814 
L 276.255824 274.144145 
L 277.934243 281.293755 
L 279.507761 287.063497 
L 281.011345 291.758103 
L 282.444995 295.529412 
L 283.843678 298.594958 
L 285.207393 301.054242 
L 286.536142 303.002454 
L 287.86489 304.56398 
L 289.193639 305.793733 
L 290.592322 306.787875 
L 292.060939 307.561808 
L 293.704391 308.171855 
L 295.592612 308.627028 
L 297.900439 308.944472 
L 301.047475 309.137693 
L 306.607239 309.219839 
L 337.238391 309.228 
L 394.829152 309.228 
L 394.829152 309.228 
" clip-path="url(#peecbce207e)" style="fill: none; stroke-dasharray: 9.6,2.4,1.5,2.4; stroke-dashoffset: 0; stroke: #000000; stroke-width: 1.5"/>
   </g>
   <g id="line2d_57">
    <path d="M 45.193438 309.223526 
L 113.449155 309.097453 
L 135.128737 308.846218 
L 148.765893 308.477408 
L 158.801442 307.992735 
L 166.773933 307.392036 
L 173.382709 306.677082 
L 179.047374 305.845432 
L 184.012698 304.895355 
L 188.418549 303.830391 
L 192.404794 302.642499 
L 196.076337 301.318254 
L 199.468142 299.859739 
L 202.615178 298.267822 
L 205.587379 296.518252 
L 208.419712 294.594184 
L 211.147143 292.470152 
L 213.769673 290.142595 
L 216.287302 287.611232 
L 218.769964 284.795519 
L 221.182691 281.720063 
L 223.560452 278.326299 
L 225.903246 274.59353 
L 228.246039 270.436678 
L 230.588833 265.816227 
L 232.931626 260.691616 
L 235.27442 255.022097 
L 237.652181 248.669923 
L 240.029941 241.676559 
L 242.477636 233.771787 
L 244.960298 224.993388 
L 247.547861 215.010254 
L 250.240325 203.720356 
L 253.107625 190.723908 
L 256.289628 175.240341 
L 260.170972 155.179347 
L 269.647048 105.668807 
L 272.059776 94.552021 
L 274.017931 86.527267 
L 275.661384 80.67437 
L 277.095033 76.34934 
L 278.353848 73.232849 
L 279.437827 71.111316 
L 280.381938 69.719961 
L 281.221147 68.861014 
L 281.955456 68.414513 
L 282.61983 68.264779 
L 283.249237 68.35222 
L 283.878645 68.66822 
L 284.543019 69.255026 
L 285.277327 70.21199 
L 286.08157 71.637852 
L 286.990714 73.731714 
L 287.969792 76.56366 
L 289.053771 80.398118 
L 290.242651 85.441247 
L 291.5714 92.091189 
L 293.040016 100.632511 
L 294.683469 111.566508 
L 296.57169 125.71111 
L 298.84455 144.537854 
L 302.06152 173.272965 
L 307.376514 220.746626 
L 309.789242 240.161571 
L 311.782365 254.486155 
L 313.565685 265.771891 
L 315.209138 274.809506 
L 316.747689 282.073166 
L 318.216306 287.955013 
L 319.614988 292.652959 
L 320.943737 296.360867 
L 322.237518 299.330491 
L 323.496333 301.679784 
L 324.755147 303.563588 
L 326.013962 305.04823 
L 327.272776 306.197467 
L 328.601525 307.112156 
L 330.035175 307.826114 
L 331.64366 308.371707 
L 333.531881 308.768778 
L 335.944609 309.035739 
L 339.51125 309.183098 
L 347.448774 309.227237 
L 394.829152 309.228 
L 394.829152 309.228 
" clip-path="url(#peecbce207e)" style="fill: none; stroke-dasharray: 1.5,2.475; stroke-dashoffset: 0; stroke: #000000; stroke-width: 1.5"/>
   </g>
   <g id="line2d_58">
    <path d="M 45.193438 309.227767 
L 169.221628 309.115397 
L 191.076046 308.87872 
L 204.118762 308.527876 
L 213.385035 308.06631 
L 220.553284 307.494954 
L 226.392785 306.813354 
L 231.323141 306.019515 
L 235.589123 305.11213 
L 239.365567 304.084905 
L 242.757372 302.934429 
L 245.834474 301.659498 
L 248.701774 300.230994 
L 251.359271 298.659495 
L 253.8769 296.911731 
L 256.254661 294.991525 
L 258.562487 292.838781 
L 260.765413 290.480023 
L 262.933371 287.829447 
L 265.066362 284.861738 
L 267.164386 281.551674 
L 269.227443 277.874656 
L 271.2905 273.732992 
L 273.353557 269.078408 
L 275.416614 263.860852 
L 277.479671 258.029454 
L 279.577695 251.417734 
L 281.710686 243.939471 
L 283.878645 235.507899 
L 286.116537 225.882087 
L 288.424363 214.941913 
L 290.837091 202.39303 
L 293.389687 187.908058 
L 296.187053 170.713612 
L 299.473957 149.050297 
L 305.138622 109.875021 
L 308.810164 85.314108 
L 311.187925 70.839403 
L 313.076146 60.636545 
L 314.684632 53.117756 
L 316.048347 47.751397 
L 317.237228 43.930553 
L 318.251273 41.364838 
L 319.125449 39.702486 
L 319.894725 38.683335 
L 320.559099 38.151197 
L 321.118572 37.961061 
L 321.643078 38.002157 
L 322.167584 38.259624 
L 322.762024 38.817441 
L 323.426399 39.780508 
L 324.160707 41.267595 
L 324.999917 43.515967 
L 325.90906 46.615534 
L 326.923105 50.885005 
L 328.077019 56.771122 
L 329.335833 64.403786 
L 330.734516 74.291189 
L 332.343001 87.338588 
L 334.196256 104.293672 
L 336.469115 127.253597 
L 340.175624 167.360674 
L 344.022002 208.185804 
L 346.329828 230.368501 
L 348.287984 247.12205 
L 350.036338 260.222056 
L 351.644823 270.635107 
L 353.148407 278.943795 
L 354.547089 285.476856 
L 355.875838 290.678615 
L 357.169619 294.878131 
L 358.428434 298.225142 
L 359.652281 300.860637 
L 360.841162 302.912556 
L 362.030042 304.535736 
L 363.218922 305.798359 
L 364.477737 306.81234 
L 365.806485 307.595039 
L 367.275102 308.196953 
L 368.953521 308.640244 
L 371.051545 308.95328 
L 373.953812 309.142444 
L 379.163905 309.220746 
L 394.829152 309.228 
L 394.829152 309.228 
" clip-path="url(#peecbce207e)" style="fill: none; stroke-dasharray: 4.5,1.5,1.5,1.5; stroke-dashoffset: 0; stroke: #000000; stroke-width: 1.5"/>
   </g>
   <g id="line2d_59">
    <path d="M 45.193438 309.227991 
L 227.966303 309.117028 
L 245.869442 308.885973 
L 256.254661 308.542657 
L 263.597745 308.087056 
L 269.26241 307.521616 
L 273.91303 306.840896 
L 277.864309 306.043236 
L 281.326049 305.120635 
L 284.403151 304.073051 
L 287.200516 302.887172 
L 289.753112 301.567171 
L 292.16584 300.068502 
L 294.438699 298.39248 
L 296.606657 296.514368 
L 298.669714 294.434079 
L 300.697804 292.069714 
L 302.65596 289.445318 
L 304.614116 286.441748 
L 306.537305 283.077446 
L 308.460493 279.25461 
L 310.383682 274.922742 
L 312.306871 270.029066 
L 314.23006 264.519376 
L 316.188216 258.220296 
L 318.181338 251.036969 
L 320.209428 242.871598 
L 322.272485 233.627062 
L 324.405477 223.029744 
L 326.643369 210.746042 
L 328.986162 196.608259 
L 331.503791 180.013573 
L 334.301157 160.043776 
L 337.762897 133.615791 
L 346.015125 69.883205 
L 348.21805 55.001722 
L 350.00137 44.394982 
L 351.504954 36.721018 
L 352.798736 31.209696 
L 353.917682 27.357635 
L 354.89676 24.745068 
L 355.73597 23.105883 
L 356.435311 22.183585 
L 357.029751 21.72802 
L 357.554257 21.583237 
L 358.043796 21.670051 
L 358.568302 22.004847 
L 359.127775 22.641643 
L 359.757182 23.707519 
L 360.491491 25.423595 
L 361.295733 27.890973 
L 362.204877 31.421081 
L 363.218922 36.279377 
L 364.372835 42.966046 
L 365.63165 51.615142 
L 367.0653 63.080252 
L 368.708752 78.127285 
L 370.631941 97.899321 
L 373.114602 125.896816 
L 380.842325 214.760597 
L 382.905382 235.046395 
L 384.723669 250.800245 
L 386.367121 263.164246 
L 387.905672 273.086655 
L 389.339322 280.922091 
L 390.703038 287.175616 
L 391.996819 292.106196 
L 393.255634 296.053328 
L 394.479481 299.174549 
L 394.829152 299.949039 
L 394.829152 299.949039 
" clip-path="url(#peecbce207e)" style="fill: none; stroke-dasharray: 7.5,1.5; stroke-dashoffset: 0; stroke: #000000; stroke-width: 1.5"/>
   </g>
   <g id="patch_3">
    <path d="M 45.193438 309.228 
L 45.193438 7.2 
" style="fill: none; stroke: #000000; stroke-width: 1.2; stroke-linejoin: miter; stroke-linecap: square"/>
   </g>
   <g id="patch_4">
    <path d="M 412.310937 309.228 
L 412.310937 7.2 
" style="fill: none; stroke: #000000; stroke-width: 1.2; stroke-linejoin: miter; stroke-linecap: square"/>
   </g>
   <g id="patch_5">
    <path d="M 45.193438 309.228 
L 412.310937 309.228 
" style="fill: none; stroke: #000000; stroke-width: 1.2; stroke-linejoin: miter; stroke-linecap: square"/>
   </g>
   <g id="patch_6">
    <path d="M 45.193438 7.2 
L 412.310937 7.2 
" style="fill: none; stroke: #000000; stroke-width: 1.2; stroke-linejoin: miter; stroke-linecap: square"/>
   </g>
   <g id="legend_1">
    <g id="line2d_60">
     <path d="M 54.193438 20.298437 
L 64.193438 20.298437 
L 74.193438 20.298437 
" style="fill: none; stroke: #000000; stroke-width: 1.5; stroke-linecap: square"/>
    </g>
    <g id="text_16">
     <!-- $T=0.01$ -->
     <g transform="translate(82.193438 23.798437) scale(0.1 -0.1)">
      <defs>
       <path id="Cmmi10-54" d="M 294 84 
Q 297 100 308 140 
Q 319 181 336 203 
Q 353 225 384 225 
Q 934 225 1113 256 
Q 1284 300 1319 441 
L 2194 3956 
Q 2222 4034 2222 4097 
Q 2222 4147 1997 4147 
L 1625 4147 
Q 1197 4147 964 4015 
Q 731 3884 622 3668 
Q 513 3453 341 2963 
Q 319 2906 275 2906 
L 219 2906 
Q 153 2906 153 2988 
L 609 4313 
Q 622 4372 672 4372 
L 4453 4372 
Q 4519 4372 4519 4288 
L 4306 2963 
Q 4306 2944 4284 2925 
Q 4263 2906 4244 2906 
L 4184 2906 
Q 4122 2906 4122 2988 
Q 4191 3441 4191 3628 
Q 4191 3853 4097 3968 
Q 4003 4084 3853 4115 
Q 3703 4147 3463 4147 
L 3084 4147 
Q 2913 4147 2853 4115 
Q 2794 4084 2753 3928 
L 1875 416 
Q 1872 403 1870 390 
Q 1869 378 1863 359 
Q 1863 278 1959 256 
Q 2125 225 2669 225 
Q 2731 225 2731 141 
Q 2709 50 2696 25 
Q 2684 0 2625 0 
L 359 0 
Q 294 0 294 84 
z
" transform="scale(0.015625)"/>
       <path id="Cmr10-30" d="M 1600 -141 
Q 816 -141 533 504 
Q 250 1150 250 2041 
Q 250 2597 351 3087 
Q 453 3578 754 3920 
Q 1056 4263 1600 4263 
Q 2022 4263 2290 4056 
Q 2559 3850 2700 3523 
Q 2841 3197 2892 2823 
Q 2944 2450 2944 2041 
Q 2944 1491 2842 1011 
Q 2741 531 2444 195 
Q 2147 -141 1600 -141 
z
M 1600 25 
Q 1956 25 2131 390 
Q 2306 756 2347 1200 
Q 2388 1644 2388 2144 
Q 2388 2625 2347 3031 
Q 2306 3438 2132 3767 
Q 1959 4097 1600 4097 
Q 1238 4097 1063 3765 
Q 888 3434 847 3029 
Q 806 2625 806 2144 
Q 806 1788 823 1472 
Q 841 1156 916 820 
Q 991 484 1158 254 
Q 1325 25 1600 25 
z
" transform="scale(0.015625)"/>
       <path id="Cmmi10-3a" d="M 538 353 
Q 538 497 644 600 
Q 750 703 891 703 
Q 978 703 1062 656 
Q 1147 609 1194 525 
Q 1241 441 1241 353 
Q 1241 213 1137 106 
Q 1034 0 891 0 
Q 750 0 644 106 
Q 538 213 538 353 
z
" transform="scale(0.015625)"/>
      </defs>
      <use xlink:href="#Cmmi10-54" transform="translate(0 0.6875)"/>
      <use xlink:href="#Cmr10-3d" transform="translate(75.957031 0.6875)"/>
      <use xlink:href="#Cmr10-30" transform="translate(171.201172 0.6875)"/>
      <use xlink:href="#Cmmi10-3a" transform="translate(221.201172 0.6875)"/>
      <use xlink:href="#Cmr10-30" transform="translate(248.886719 0.6875)"/>
      <use xlink:href="#Cmr10-31" transform="translate(298.886719 0.6875)"/>
     </g>
    </g>
    <g id="line2d_61">
     <path d="M 54.193438 34.976562 
L 64.193438 34.976562 
L 74.193438 34.976562 
" style="fill: none; stroke-dasharray: 5.55,2.4; stroke-dashoffset: 0; stroke: #000000; stroke-width: 1.5"/>
    </g>
    <g id="text_17">
     <!-- $T=0.1$ -->
     <g transform="translate(82.193438 38.476562) scale(0.1 -0.1)">
      <use xlink:href="#Cmmi10-54" transform="translate(0 0.6875)"/>
      <use xlink:href="#Cmr10-3d" transform="translate(75.957031 0.6875)"/>
      <use xlink:href="#Cmr10-30" transform="translate(171.201172 0.6875)"/>
      <use xlink:href="#Cmmi10-3a" transform="translate(221.201172 0.6875)"/>
      <use xlink:href="#Cmr10-31" transform="translate(248.886719 0.6875)"/>
     </g>
    </g>
    <g id="line2d_62">
     <path d="M 54.193438 49.654687 
L 64.193438 49.654687 
L 74.193438 49.654687 
" style="fill: none; stroke-dasharray: 9.6,2.4,1.5,2.4; stroke-dashoffset: 0; stroke: #000000; stroke-width: 1.5"/>
    </g>
    <g id="text_18">
     <!-- $T=0.316$ -->
     <g transform="translate(82.193438 53.154687) scale(0.1 -0.1)">
      <defs>
       <path id="Cmr10-33" d="M 609 494 
Q 759 275 1012 169 
Q 1266 63 1556 63 
Q 1928 63 2084 380 
Q 2241 697 2241 1100 
Q 2241 1281 2208 1462 
Q 2175 1644 2097 1800 
Q 2019 1956 1883 2050 
Q 1747 2144 1550 2144 
L 1125 2144 
Q 1069 2144 1069 2203 
L 1069 2259 
Q 1069 2309 1125 2309 
L 1478 2338 
Q 1703 2338 1851 2506 
Q 2000 2675 2069 2917 
Q 2138 3159 2138 3378 
Q 2138 3684 1994 3881 
Q 1850 4078 1556 4078 
Q 1313 4078 1091 3986 
Q 869 3894 738 3706 
Q 750 3709 759 3711 
Q 769 3713 781 3713 
Q 925 3713 1022 3613 
Q 1119 3513 1119 3372 
Q 1119 3234 1022 3134 
Q 925 3034 781 3034 
Q 641 3034 541 3134 
Q 441 3234 441 3372 
Q 441 3647 606 3850 
Q 772 4053 1033 4158 
Q 1294 4263 1556 4263 
Q 1750 4263 1965 4205 
Q 2181 4147 2356 4039 
Q 2531 3931 2642 3762 
Q 2753 3594 2753 3378 
Q 2753 3109 2633 2881 
Q 2513 2653 2303 2487 
Q 2094 2322 1844 2241 
Q 2122 2188 2372 2031 
Q 2622 1875 2773 1631 
Q 2925 1388 2925 1106 
Q 2925 753 2731 467 
Q 2538 181 2222 20 
Q 1906 -141 1556 -141 
Q 1256 -141 954 -26 
Q 653 88 461 316 
Q 269 544 269 863 
Q 269 1022 375 1128 
Q 481 1234 641 1234 
Q 744 1234 830 1186 
Q 916 1138 964 1050 
Q 1013 963 1013 863 
Q 1013 706 903 600 
Q 794 494 641 494 
L 609 494 
z
" transform="scale(0.015625)"/>
       <path id="Cmr10-36" d="M 1600 -141 
Q 1203 -141 937 70 
Q 672 281 526 617 
Q 381 953 325 1322 
Q 269 1691 269 2069 
Q 269 2575 466 3084 
Q 663 3594 1045 3928 
Q 1428 4263 1953 4263 
Q 2172 4263 2361 4180 
Q 2550 4097 2658 3936 
Q 2766 3775 2766 3547 
Q 2766 3416 2677 3327 
Q 2588 3238 2456 3238 
Q 2331 3238 2240 3328 
Q 2150 3419 2150 3547 
Q 2150 3672 2240 3762 
Q 2331 3853 2456 3853 
L 2491 3853 
Q 2409 3969 2261 4023 
Q 2113 4078 1953 4078 
Q 1759 4078 1595 3993 
Q 1431 3909 1300 3765 
Q 1169 3622 1081 3448 
Q 994 3275 945 3053 
Q 897 2831 884 2637 
Q 872 2444 872 2150 
Q 984 2413 1190 2580 
Q 1397 2747 1656 2747 
Q 1941 2747 2175 2631 
Q 2409 2516 2578 2311 
Q 2747 2106 2836 1843 
Q 2925 1581 2925 1313 
Q 2925 938 2758 598 
Q 2591 259 2287 59 
Q 1984 -141 1600 -141 
z
M 1600 63 
Q 1847 63 1997 175 
Q 2147 288 2217 473 
Q 2288 659 2305 848 
Q 2322 1038 2322 1313 
Q 2322 1675 2287 1931 
Q 2253 2188 2100 2383 
Q 1947 2578 1631 2578 
Q 1372 2578 1205 2403 
Q 1038 2228 961 1961 
Q 884 1694 884 1447 
Q 884 1363 891 1319 
Q 891 1309 889 1303 
Q 888 1297 884 1288 
Q 884 1013 940 731 
Q 997 450 1156 256 
Q 1316 63 1600 63 
z
" transform="scale(0.015625)"/>
      </defs>
      <use xlink:href="#Cmmi10-54" transform="translate(0 0.6875)"/>
      <use xlink:href="#Cmr10-3d" transform="translate(75.957031 0.6875)"/>
      <use xlink:href="#Cmr10-30" transform="translate(171.201172 0.6875)"/>
      <use xlink:href="#Cmmi10-3a" transform="translate(221.201172 0.6875)"/>
      <use xlink:href="#Cmr10-33" transform="translate(248.886719 0.6875)"/>
      <use xlink:href="#Cmr10-31" transform="translate(298.886719 0.6875)"/>
      <use xlink:href="#Cmr10-36" transform="translate(348.886719 0.6875)"/>
     </g>
    </g>
    <g id="line2d_63">
     <path d="M 54.193438 64.332812 
L 64.193438 64.332812 
L 74.193438 64.332812 
" style="fill: none; stroke-dasharray: 1.5,2.475; stroke-dashoffset: 0; stroke: #000000; stroke-width: 1.5"/>
    </g>
    <g id="text_19">
     <!-- $T=1$ -->
     <g transform="translate(82.193438 67.832812) scale(0.1 -0.1)">
      <use xlink:href="#Cmmi10-54" transform="translate(0 0.6875)"/>
      <use xlink:href="#Cmr10-3d" transform="translate(75.957031 0.6875)"/>
      <use xlink:href="#Cmr10-31" transform="translate(171.201172 0.6875)"/>
     </g>
    </g>
    <g id="line2d_64">
     <path d="M 54.193438 79.010937 
L 64.193438 79.010937 
L 74.193438 79.010937 
" style="fill: none; stroke-dasharray: 4.5,1.5,1.5,1.5; stroke-dashoffset: 0; stroke: #000000; stroke-width: 1.5"/>
    </g>
    <g id="text_20">
     <!-- $T=3.16$ -->
     <g transform="translate(82.193438 82.510937) scale(0.1 -0.1)">
      <use xlink:href="#Cmmi10-54" transform="translate(0 0.6875)"/>
      <use xlink:href="#Cmr10-3d" transform="translate(75.957031 0.6875)"/>
      <use xlink:href="#Cmr10-33" transform="translate(171.201172 0.6875)"/>
      <use xlink:href="#Cmmi10-3a" transform="translate(221.201172 0.6875)"/>
      <use xlink:href="#Cmr10-31" transform="translate(248.886719 0.6875)"/>
      <use xlink:href="#Cmr10-36" transform="translate(298.886719 0.6875)"/>
     </g>
    </g>
    <g id="line2d_65">
     <path d="M 54.193438 93.689062 
L 64.193438 93.689062 
L 74.193438 93.689062 
" style="fill: none; stroke-dasharray: 7.5,1.5; stroke-dashoffset: 0; stroke: #000000; stroke-width: 1.5"/>
    </g>
    <g id="text_21">
     <!-- $T=10$ -->
     <g transform="translate(82.193438 97.189062) scale(0.1 -0.1)">
      <use xlink:href="#Cmmi10-54" transform="translate(0 0.6875)"/>
      <use xlink:href="#Cmr10-3d" transform="translate(75.957031 0.6875)"/>
      <use xlink:href="#Cmr10-31" transform="translate(171.201172 0.6875)"/>
      <use xlink:href="#Cmr10-30" transform="translate(221.201172 0.6875)"/>
     </g>
    </g>
   </g>
  </g>
 </g>
 <defs>
  <clipPath id="peecbce207e">
   <rect x="45.193438" y="7.2" width="367.1175" height="302.028"/>
  </clipPath>
 </defs>
</svg>
